<svg xmlns="http://www.w3.org/2000/svg" viewBox="0 0 467.89 367.11"><defs><style>.cls-1,.cls-10,.cls-2{fill:#457cbf;}.cls-1{stroke:#457cbf;}.cls-1,.cls-8,.cls-9{stroke-miterlimit:10;}.cls-3,.cls-6,.cls-8{fill:#f89a20;}.cls-4{fill:#60bb46;}.cls-5{fill:#f4fafb;}.cls-10,.cls-6{font-size:14px;font-family:MyriadPro-Regular, Myriad Pro;}.cls-7{letter-spacing:-0.01em;}.cls-8,.cls-9{stroke:#f89a20;}.cls-9{fill:none;}.cls-11{letter-spacing:0em;}.cls-12{letter-spacing:-0.01em;}.cls-13{letter-spacing:0em;}.cls-14{letter-spacing:0em;}.cls-15{letter-spacing:0em;}</style></defs><g id="Layer_2" data-name="Layer 2"><g id="Layer_1-2" data-name="Layer 1"><path class="cls-1" d="M168.79,89.23c13.75-28,42.52-44.79,71-44.78s56.1,15.58,75.5,39,31,54,35.94,85.42"/><path class="cls-2" d="M95.69,117c-26,7.17-53.17,14.92-71.24,30.65S1.52,189.71,21.61,204c8.15,5.8,19,8.81,29.62,11.68l88,23.87"/><path class="cls-3" d="M63.46,108.28c9.56,22.28,24.43,49.56,22.95,73.41-1.21,19.37-12.86,36.73-20.75,54.79S54.2,276.72,67.47,292s38.16,17.56,59.87,16.59c90.08-4,177.79-41.18,238.63-101.06,19.19-18.87,36.69-44.21,28.22-68.61-9.25-26.63-44.57-37.88-75.55-39.32s-63.55,2.82-91.9-8.5A95.85,95.85,0,0,1,204.87,79c-6.91-4.8-9.71-7.78-27.25-22.09-6.26-5.1-9.38-7.66-10.58-8.54,0,0-24.76-18-41.9-20.59-5.44-.81-22.77,1-34.76,4.7C81.09,35.27,83,37.53,75.71,43,72.87,45.18,68.1,52.56,64,60.61,59.62,69.15,56,78.45,56.22,83,56.75,93.51,59.26,98.5,63.46,108.28Z"/><polygon class="cls-2" points="273.17 303.35 268.89 301.59 265.11 304.27 265.34 299.48 261.7 296.52 266.13 295.32 267.66 290.81 270.16 294.86 274.75 295.03 271.87 298.73 273.17 303.35"/><polygon class="cls-2" points="48.06 246.32 41.08 244.38 34.72 247.84 35.34 241.97 29.48 238.54 36.84 236.85 39.59 231.26 43.52 236.09 51.07 236.07 46.13 240.74 48.06 246.32"/><polygon class="cls-4" points="351.44 32.34 337.64 28.06 325.17 35.34 326.28 22.81 314.66 15.35 329.14 11.89 334.44 0 342.28 10.39 357.18 10.5 347.54 20.39 351.44 32.34"/><rect class="cls-5" x="319.11" y="64.04" width="148.78" height="54.88" rx="15.85"/><text class="cls-6"><tspan x="369.75" y="91.48">UI/UX</tspan><tspan x="369.75" y="108.28">a ui/ux desi</tspan><tspan class="cls-7" x="436.15" y="108.28">g</tspan><tspan x="443.89" y="108.28">ner</tspan></text><text/><text/><path class="cls-3" d="M337.83,83.55l-2.52.71a10.28,10.28,0,0,0-3.65,13.68,10.76,10.76,0,0,0,14,3.62,10.28,10.28,0,0,0,3.75-13.65,17.2,17.2,0,0,0-15.56-3.11"/><path class="cls-8" d="M248,141.6l10.81,5.94"/><path class="cls-9" d="M341.41,97.57l-11,9.76"/><rect class="cls-5" y="270.1" width="148.78" height="46.69" rx="15.85"/><text class="cls-10"><tspan class="cls-11" x="50.64" y="297.54">C</tspan><tspan class="cls-12" x="58.72" y="297.54">r</tspan><tspan x="63.16" y="297.54">e</tspan><tspan class="cls-13" x="70.17" y="297.54">a</tspan><tspan x="76.87" y="297.54">ti</tspan><tspan class="cls-12" x="84.78" y="297.54">v</tspan><tspan x="91.37" y="297.54">e </tspan><tspan class="cls-14" x="101.35" y="297.54">D</tspan><tspan class="cls-15" x="110.73" y="297.54">esi</tspan><tspan class="cls-7" x="126.56" y="297.54">g</tspan><tspan x="134.31" y="297.54">n</tspan></text><text/><text/><polygon class="cls-2" points="37.34 298.07 30.35 295.95 24.01 299.6 24.58 293.33 18.69 289.62 26.05 287.88 28.75 281.93 32.72 287.12 40.27 287.16 35.37 292.1 37.34 298.07"/><ellipse class="cls-3" cx="327.43" cy="270.1" rx="16.74" ry="7.8"/></g></g></svg>