<svg xmlns="http://www.w3.org/2000/svg" viewBox="0 0 501.96 401.65"><defs><style>.cls-1,.cls-10,.cls-2{fill:#457cbf;}.cls-1,.cls-17{stroke:#457cbf;}.cls-1,.cls-17,.cls-8,.cls-9{stroke-miterlimit:10;}.cls-3,.cls-6,.cls-8{fill:#f89a20;}.cls-4{fill:#60bb46;}.cls-5{fill:#f4fafb;}.cls-10,.cls-6{font-size:14px;font-family:MyriadPro-Regular, Myriad Pro;}.cls-7{letter-spacing:-0.01em;}.cls-8,.cls-9{stroke:#f89a20;}.cls-17,.cls-9{fill:none;}.cls-11{letter-spacing:0em;}.cls-12{letter-spacing:-0.01em;}.cls-13{letter-spacing:0em;}.cls-14{letter-spacing:0em;}.cls-15{letter-spacing:0em;}.cls-16{fill:#f89a22;}</style></defs><g id="Layer_2" data-name="Layer 2"><g id="Layer_1-2" data-name="Layer 1"><path class="cls-1" d="M202.86,123.77c13.75-28,42.52-44.79,71-44.78s56.1,15.58,75.5,39,31,54,35.94,85.43"/><path class="cls-2" d="M129.76,151.55c-26,7.16-53.16,14.92-71.24,30.65s-22.93,42.05-2.84,56.34c8.15,5.8,19.05,8.81,29.62,11.68l88,23.87"/><path class="cls-3" d="M97.53,142.82c9.56,22.28,24.43,49.56,23,73.41C119.27,235.59,107.62,253,99.73,271s-11.46,40.24,1.81,55.53,38.16,17.56,59.87,16.58c90.08-4,177.79-41.17,238.63-101,19.19-18.88,36.69-44.21,28.22-68.61-9.25-26.64-44.57-37.88-75.55-39.32s-63.55,2.82-91.9-8.5a95.85,95.85,0,0,1-21.87-12.16c-6.91-4.8-9.71-7.78-27.25-22.09-6.26-5.1-9.38-7.66-10.58-8.54,0,0-24.76-18-41.9-20.59-5.44-.81-22.77,1-34.76,4.7-9.28,2.84-7.42,5.1-14.67,10.6-2.84,2.15-7.61,9.53-11.72,17.58-4.37,8.54-8,17.84-7.77,22.41C90.82,128.05,93.33,133,97.53,142.82Z"/><polygon class="cls-2" points="307.25 337.89 302.96 336.13 299.18 338.81 299.41 334.02 295.77 331.06 300.2 329.86 301.73 325.35 304.23 329.4 308.82 329.57 305.94 333.27 307.25 337.89"/><polygon class="cls-2" points="82.13 280.86 75.15 278.92 68.79 282.38 69.41 276.51 63.55 273.08 70.92 271.39 73.66 265.8 77.58 270.63 85.14 270.61 80.2 275.28 82.13 280.86"/><polygon class="cls-4" points="385.51 66.88 371.71 62.6 359.24 69.88 360.35 57.35 348.73 49.89 363.21 46.43 368.51 34.54 376.35 44.93 391.25 45.04 381.61 54.93 385.51 66.88"/><rect class="cls-5" x="353.18" y="98.58" width="148.78" height="54.88" rx="15.85"/><text class="cls-6"><tspan x="403.82" y="126.02">UI/UX</tspan><tspan x="403.82" y="142.82">a ui/ux desi</tspan><tspan class="cls-7" x="470.22" y="142.82">g</tspan><tspan x="477.96" y="142.82">ner</tspan></text><text/><text/><path class="cls-3" d="M371.9,118.09l-2.52.71a10.28,10.28,0,0,0-3.65,13.68,10.76,10.76,0,0,0,14,3.62,10.28,10.28,0,0,0,3.75-13.65,17.2,17.2,0,0,0-15.56-3.11"/><path class="cls-8" d="M282.12,176.14l10.8,5.94"/><path class="cls-9" d="M375.48,132.11l-11,9.76"/><rect class="cls-5" x="34.07" y="304.64" width="148.78" height="46.69" rx="15.85"/><text class="cls-10"><tspan class="cls-11" x="84.71" y="332.08">C</tspan><tspan class="cls-12" x="92.79" y="332.08">r</tspan><tspan x="97.23" y="332.08">e</tspan><tspan class="cls-13" x="104.24" y="332.08">a</tspan><tspan x="110.94" y="332.08">ti</tspan><tspan class="cls-12" x="118.85" y="332.08">v</tspan><tspan x="125.44" y="332.08">e </tspan><tspan class="cls-14" x="135.42" y="332.08">D</tspan><tspan class="cls-15" x="144.8" y="332.08">esi</tspan><tspan class="cls-7" x="160.63" y="332.08">g</tspan><tspan x="168.38" y="332.08">n</tspan></text><text/><text/><polygon class="cls-2" points="71.42 332.61 64.42 330.49 58.08 334.13 58.65 327.88 52.76 324.16 60.12 322.42 62.82 316.47 66.79 321.66 74.35 321.7 69.44 326.64 71.42 332.61"/><ellipse class="cls-3" cx="361.5" cy="304.64" rx="16.74" ry="7.8"/><circle class="cls-16" cx="52.34" cy="51.99" r="16.87"/><line class="cls-1" x1="55.42" y1="21.95" x2="55.42"/><line class="cls-1" x1="76.68" y1="30.77" x2="95.53" y2="10.98"/><line class="cls-1" x1="52.94" y1="109.17" x2="52.94" y2="78.8"/><line class="cls-17" x1="68.41" y1="73.41" x2="93.47" y2="90.57"/><line class="cls-1" x1="80.09" y1="50.4" x2="107.43" y2="50.4"/><line class="cls-1" x1="16.4" y1="93.99" x2="36.34" y2="73.04"/><line class="cls-1" y1="53.2" x2="28.92" y2="53.2"/><line class="cls-1" x1="34.55" y1="31.8" x2="14.46" y2="13.26"/></g></g></svg>