<svg xmlns="http://www.w3.org/2000/svg" viewBox="0 0 467.89 347.65"><defs><style>.cls-1,.cls-10,.cls-2{fill:#457cbf;}.cls-1{stroke:#457cbf;}.cls-1,.cls-8,.cls-9{stroke-miterlimit:10;}.cls-3,.cls-6,.cls-8{fill:#f89a20;}.cls-4{fill:#60bb46;}.cls-5{fill:#f4fafb;}.cls-10,.cls-6{font-size:14px;font-family:MyriadPro-Regular, Myriad Pro;}.cls-7{letter-spacing:-0.01em;}.cls-8,.cls-9{stroke:#f89a20;}.cls-9{fill:none;}.cls-11{letter-spacing:0em;}.cls-12{letter-spacing:-0.01em;}.cls-13{letter-spacing:0em;}.cls-14{letter-spacing:0em;}.cls-15{letter-spacing:0em;}</style></defs><g id="Layer_2" data-name="Layer 2"><g id="Layer_1-2" data-name="Layer 1"><path class="cls-1" d="M168.79,69.76c13.75-28,42.52-44.78,71-44.77s56.1,15.58,75.5,39,31,54,35.94,85.43"/><path class="cls-2" d="M95.69,97.55c-26,7.16-53.17,14.92-71.24,30.64s-22.93,42.06-2.84,56.34c8.15,5.8,19,8.82,29.62,11.69l88,23.87"/><path class="cls-3" d="M63.81,94.2c9.57,22.28,24.08,44.18,22.6,68C85.2,181.59,73.55,199,65.66,217s-11.46,40.24,1.81,55.53,38.16,17.56,59.87,16.59c90.08-4,177.79-41.18,238.63-101,19.19-18.88,36.69-44.21,28.22-68.62-9.25-26.63-44.57-37.87-75.55-39.31s-63.55,2.82-91.9-8.51c-19-7.6-33.93-21.43-49.12-34.24S145.54,12.07,125.14,8.27A58.06,58.06,0,0,0,97.76,9.84C88.48,12.68,83,18.06,75.71,23.56,69.86,28,65,31.14,61.47,37.57c-4.39,8-5.7,17.11-5.25,26A89.9,89.9,0,0,0,63.81,94.2Z"/><polygon class="cls-2" points="273.17 283.88 268.89 282.12 265.11 284.8 265.34 280.01 261.7 277.06 266.13 275.86 267.66 271.35 270.16 275.4 274.75 275.57 271.87 279.27 273.17 283.88"/><polygon class="cls-2" points="48.06 226.85 41.08 224.91 34.72 228.38 35.34 222.51 29.48 219.07 36.84 217.39 39.59 211.8 43.52 216.63 51.07 216.61 46.13 221.28 48.06 226.85"/><polygon class="cls-4" points="351.44 32.34 337.64 28.06 325.17 35.34 326.28 22.81 314.66 15.35 329.14 11.89 334.44 0 342.28 10.39 357.18 10.5 347.54 20.39 351.44 32.34"/><rect class="cls-5" x="319.11" y="44.57" width="148.78" height="54.88" rx="15.85"/><text class="cls-6"><tspan x="369.75" y="72.01">UI/UX</tspan><tspan x="369.75" y="88.81">a ui/ux desi</tspan><tspan class="cls-7" x="436.15" y="88.81">g</tspan><tspan x="443.89" y="88.81">ner</tspan></text><text/><text/><path class="cls-3" d="M337.83,64.09l-2.52.7a10.3,10.3,0,0,0-3.65,13.69,10.77,10.77,0,0,0,14,3.62,10.3,10.3,0,0,0,3.75-13.66,17.26,17.26,0,0,0-15.56-3.11"/><path class="cls-8" d="M248,122.14l10.81,5.94"/><path class="cls-9" d="M341.41,78.11l-11,9.76"/><rect class="cls-5" y="250.64" width="148.78" height="46.69" rx="15.85"/><text class="cls-10"><tspan class="cls-11" x="50.64" y="278.08">C</tspan><tspan class="cls-12" x="58.72" y="278.08">r</tspan><tspan x="63.16" y="278.08">e</tspan><tspan class="cls-13" x="70.17" y="278.08">a</tspan><tspan x="76.87" y="278.08">ti</tspan><tspan class="cls-12" x="84.78" y="278.08">v</tspan><tspan x="91.37" y="278.08">e </tspan><tspan class="cls-14" x="101.35" y="278.08">D</tspan><tspan class="cls-15" x="110.73" y="278.08">esi</tspan><tspan class="cls-7" x="126.56" y="278.08">g</tspan><tspan x="134.31" y="278.08">n</tspan></text><text/><text/><polygon class="cls-2" points="37.34 278.61 30.35 276.48 24.01 280.13 24.58 273.87 18.69 270.16 26.05 268.41 28.75 262.47 32.72 267.65 40.27 267.69 35.37 272.64 37.34 278.61"/><ellipse class="cls-3" cx="327.43" cy="250.64" rx="16.74" ry="7.8"/></g></g></svg>