<svg xmlns="http://www.w3.org/2000/svg" viewBox="0 0 97.3 94.87"><defs><style>.cls-1{fill:#300;}.cls-2{fill:#ff9a00;}</style></defs><g id="Layer_2" data-name="Layer 2"><g id="Layer_1-2" data-name="Layer 1"><g id="vlpa"><g id="vlpb"><g id="vlpc"><g id="vlpd"><path class="cls-1" d="M17.23,0H80.07A17.21,17.21,0,0,1,97.3,17.23V77.64A17.22,17.22,0,0,1,80.07,94.87H17.23A17.22,17.22,0,0,1,0,77.64V17.23A17.21,17.21,0,0,1,17.23,0Z"/></g></g></g><g id="vlpe"><g id="vlpf"><path class="cls-2" d="M47,56.76H32l-3.08,9.53a.72.72,0,0,1-.77.56H20.47c-.44,0-.56-.24-.44-.73l13-37.58c.12-.4.25-.85.41-1.34a14.29,14.29,0,0,0,.24-2.63.41.41,0,0,1,.33-.45h10.5c.32,0,.48.12.52.33L59.88,66.2c.12.45,0,.65-.41.65H51a.62.62,0,0,1-.65-.44L47,56.76ZM34.3,48.53H44.6c-.25-.85-.57-1.87-.94-2.92s-.73-2.27-1.09-3.49-.77-2.47-1.18-3.73S40.62,36,40.3,34.78s-.61-2.18-.89-3.16h-.08A52.39,52.39,0,0,1,38,36.85c-.61,1.95-1.22,4-1.87,6S34.91,46.83,34.3,48.53Z"/><path class="cls-2" d="M68.92,31.22a5,5,0,0,1-3.61-1.42,5.29,5.29,0,0,1-1.38-3.73,4.78,4.78,0,0,1,1.46-3.61A5.22,5.22,0,0,1,69,21a4.86,4.86,0,0,1,3.69,1.42A5.13,5.13,0,0,1,74,26.07a5.15,5.15,0,0,1-1.42,3.73,4.78,4.78,0,0,1-3.69,1.42ZM64.38,66.41V35.19c0-.41.16-.57.53-.57h8c.37,0,.53.21.53.57V66.41c0,.44-.16.65-.53.65H65A.57.57,0,0,1,64.38,66.41Z"/></g></g></g></g></g></svg>