<svg xmlns="http://www.w3.org/2000/svg" viewBox="0 0 33.92 33.07"><defs><style>.cls-1{fill:#300;}.cls-2{fill:#ff9a00;}</style></defs><g id="Layer_2" data-name="Layer 2"><g id="Layer_1-2" data-name="Layer 1"><g id="vlpa"><g id="vlpb"><g id="vlpc"><g id="vlpd"><path class="cls-1" d="M6,0h21.9a6,6,0,0,1,6,6v21a6,6,0,0,1-6,6H6a6,6,0,0,1-6-6V6A6,6,0,0,1,6,0Z"/></g></g></g><g id="vlpe"><g id="vlpf"><path class="cls-2" d="M16.39,19.79H11.14l-1.08,3.32a.24.24,0,0,1-.27.19H7.14c-.16,0-.2-.08-.16-.25L11.53,10l.14-.47a4.56,4.56,0,0,0,.09-.92.13.13,0,0,1,.11-.15h3.66c.11,0,.17,0,.19.11l5.15,14.56c.05.15,0,.22-.14.22H17.78a.21.21,0,0,1-.23-.15l-1.16-3.36ZM12,16.92h3.59c-.09-.3-.2-.65-.33-1s-.25-.79-.38-1.22-.27-.86-.41-1.3-.27-.84-.38-1.25-.21-.77-.31-1.11h0a17.63,17.63,0,0,1-.48,1.83l-.65,2.09C12.38,15.66,12.17,16.32,12,16.92Z"/><path class="cls-2" d="M24,10.88a1.74,1.74,0,0,1-1.26-.49,1.8,1.8,0,0,1-.48-1.3,1.64,1.64,0,0,1,.51-1.26,1.77,1.77,0,0,1,1.25-.5,1.69,1.69,0,0,1,1.29.5,1.93,1.93,0,0,1,0,2.56,1.63,1.63,0,0,1-1.28.49ZM22.44,23.15V12.27c0-.14.06-.2.19-.2h2.79c.13,0,.19.07.19.2V23.15c0,.15-.06.22-.19.22H22.65A.19.19,0,0,1,22.44,23.15Z"/></g></g></g></g></g></svg>