<svg xmlns="http://www.w3.org/2000/svg" viewBox="0 0 217.84 394.33"><defs><style>.cls-1{fill:#fa9a1c;}</style></defs><g id="Layer_2" data-name="Layer 2"><g id="Layer_1-2" data-name="Layer 1"><g id="Layer_2-2" data-name="Layer 2"><g id="Layer_1-2-2" data-name="Layer 1-2"><path class="cls-1" d="M123.14,288.92c13.91-24,32-45.32,48.71-67.47s32.41-45.7,40.54-72.24,8-56.69-5.93-80.73c-9.93-17.2-26-30-42.51-41C145.56,15.32,125.56,4.7,103.79,1.16s-45.67.85-62,15.65c-10.85,9.83-17.61,23.34-23,36.94-35.32,88.67-20,195.59,38.77,270.79C71.56,342.47,89,360,92.7,383.38c.53,3.36.81,7.73-.47,10.95-.55-6.17.87-13.16,1.7-19.29q1.48-11.07,4-22a236,236,0,0,1,14.12-42.29A230.49,230.49,0,0,1,123.14,288.92Z"/></g></g></g></g></svg>