<?xml version="1.0" encoding="utf-8"?>
<!-- Generator: Adobe Illustrator 25.2.0, SVG Export Plug-In . SVG Version: 6.00 Build 0)  -->
<svg version="1.1" id="Layer_1" xmlns="http://www.w3.org/2000/svg" xmlns:xlink="http://www.w3.org/1999/xlink" x="0px" y="0px"
	 viewBox="0 0 394.3 217.9" style="enable-background:new 0 0 394.3 217.9;" xml:space="preserve">
<style type="text/css">
	.st0{fill:#FA9A1C;}
</style>
<g id="Layer_2_1_">
	<g id="Layer_1-2">
		<path class="st0" d="M612.7,210.3c12.3-24.9,28.9-47.3,44.1-70.7c15.2-23.3,29.2-47.7,35.6-74.7c6.3-27,4.1-57.1-11.3-80.1
			c-11-16.5-27.9-28.2-45.1-38c-19.2-11-39.8-20.1-61.8-22.2c-22-2.1-45.5,4-60.8,19.7c-10.2,10.5-16,24.4-20.5,38.3
			c-29.3,90.8-6.9,196.5,56.8,267.6c15.1,16.9,33.7,33.3,39,56.4c0.7,3.4,1.3,7.6,0.2,11c-1-6.1,0-13.2,0.4-19.4
			c0.5-7.4,1.3-14.8,2.5-22.2c2.4-14.7,6.2-29.2,11.2-43.1C605.9,225.1,609,217.6,612.7,210.3z"/>
	</g>
</g>
</svg>
