<?xml version="1.0" encoding="utf-8"?>
<!-- Generator: Adobe Illustrator 25.2.0, SVG Export Plug-In . SVG Version: 6.00 Build 0)  -->
<svg version="1.1" id="Layer_1" xmlns="http://www.w3.org/2000/svg" xmlns:xlink="http://www.w3.org/1999/xlink" x="0px" y="0px"
	 viewBox="0 0 612 792" style="enable-background:new 0 0 612 792;" xml:space="preserve">
<style type="text/css">
	.st0{fill:#F89A20;}
</style>
<g id="Layer_2_1_">
	<g id="Layer_1-2">
		<path class="st0" d="M402.5,372.5c-24.9-12.3-47.3-28.9-70.7-44.1s-47.7-29.2-74.7-35.6c-27-6.3-57.1-4.1-80.1,11.3
			c-16.5,11-28.2,27.9-38,45.1c-11,19.2-20.1,39.8-22.2,61.8c-2.1,22,4,45.5,19.7,60.8c10.5,10.2,24.4,16,38.3,20.5
			c90.8,29.3,196.5,6.8,267.6-56.8c16.9-15.1,33.3-33.7,56.3-39c3.4-0.7,7.6-1.3,11-0.2c-6.1,1-13.2,0-19.4-0.4
			c-7.4-0.5-14.8-1.3-22.2-2.5c-14.7-2.4-29.2-6.2-43.1-11.2C417.3,379.4,409.8,376.2,402.5,372.5z"/>
	</g>
</g>
</svg>
