<svg xmlns="http://www.w3.org/2000/svg" viewBox="0 0 394.33 217.9"><defs><style>.cls-1{fill:#e4f5fc;}</style></defs><g id="Layer_2" data-name="Layer 2"><g id="Layer_1-2" data-name="Layer 1"><path class="cls-1" d="M288.92,94.7c-24-13.91-45.32-32-67.47-48.71s-45.7-32.41-72.24-40.54S92.52-2.5,68.48,11.38c-17.2,9.93-30,25.95-41,42.51C15.32,72.28,4.7,92.28,1.16,114.05s.85,45.67,15.65,62c9.83,10.85,23.34,17.61,36.94,23,88.67,35.32,195.59,20,270.79-38.77,17.93-14,35.42-31.39,58.84-35.14,3.36-.53,7.73-.81,10.95.47-6.17.55-13.16-.87-19.29-1.7q-11.07-1.48-22-4a235.17,235.17,0,0,1-42.29-14.12A229.23,229.23,0,0,1,288.92,94.7Z"/></g></g></svg>