<?xml version="1.0" encoding="utf-8"?>
<!-- Generator: Adobe Illustrator 25.2.0, SVG Export Plug-In . SVG Version: 6.00 Build 0)  -->
<svg version="1.1" id="Layer_1" xmlns="http://www.w3.org/2000/svg" xmlns:xlink="http://www.w3.org/1999/xlink" x="0px" y="0px"
	 viewBox="0 0 394.3 217.9" style="enable-background:new 0 0 394.3 217.9;" xml:space="preserve">
<style type="text/css">
	.st0{fill:#FA9A1C;}
</style>
<g id="Layer_2_1_">
	<g id="Layer_1-2">
		<path class="st0" d="M217.5,199.6c12.3-24.9,29-47.3,44.2-70.6s29.3-47.7,35.7-74.7c6.3-27,4.2-57.1-11.2-80.1
			c-11-16.5-27.9-28.2-45.1-38.1c-19.2-11-39.8-20.2-61.8-22.3c-22-2.1-45.5,3.9-60.8,19.6c-10.2,10.5-16,24.4-20.5,38.3
			c-29.4,90.8-7.1,196.5,56.5,267.7c15.1,16.9,33.7,33.3,38.9,56.4c0.7,3.4,1.3,7.6,0.2,11c-1-6.1,0-13.2,0.4-19.4
			c0.5-7.4,1.3-14.8,2.5-22.2c2.4-14.7,6.2-29.2,11.3-43.1C210.6,214.4,213.8,206.9,217.5,199.6z"/>
	</g>
</g>
</svg>
