<?xml version="1.0" encoding="utf-8"?>
<!-- Generator: Adobe Illustrator 25.2.0, SVG Export Plug-In . SVG Version: 6.00 Build 0)  -->
<svg version="1.1" id="Layer_1" xmlns="http://www.w3.org/2000/svg" xmlns:xlink="http://www.w3.org/1999/xlink" x="0px" y="0px"
	 viewBox="0 0 394.3 217.9" style="enable-background:new 0 0 394.3 217.9;" xml:space="preserve">
<style type="text/css">
	.st0{fill:#0B72B9;}
</style>
<g id="Layer_2_1_">
	<g id="Layer_1-2">
		<path class="st0" d="M288.9,94.7c-24-13.9-45.3-32-67.5-48.7s-45.7-32.4-72.2-40.5s-56.7-7.9-80.7,5.9c-17.2,9.9-30,26-41,42.5
			C15.3,72.3,4.7,92.3,1.2,114.1s0.9,45.7,15.6,62c9.8,10.9,23.3,17.6,36.9,23c88.7,35.3,195.6,20,270.8-38.8
			c17.9-14,35.4-31.4,58.8-35.1c3.4-0.5,7.7-0.8,11,0.5c-6.2,0.6-13.2-0.9-19.3-1.7c-7.4-1-14.7-2.3-22-4
			c-14.5-3.4-28.7-8.1-42.3-14.1C303.3,102.5,296,98.8,288.9,94.7z"/>
	</g>
</g>
</svg>
