<svg width="15" height="15" viewBox="0 0 15 15" fill="none" xmlns="http://www.w3.org/2000/svg">
<path d="M14.1667 0H0.833333C0.61232 0 0.400358 0.0877973 0.244078 0.244078C0.0877973 0.400358 0 0.61232 0 0.833333V14.1667C0 14.3877 0.0877973 14.5996 0.244078 14.7559C0.400358 14.9122 0.61232 15 0.833333 15H8.0125V9.2H6.06417V6.92917H8.0125V5.2625C8.0125 3.325 9.19583 2.26917 10.9292 2.26917C11.5117 2.2675 12.095 2.2975 12.675 2.35833V4.375H11.4792C10.5392 4.375 10.3558 4.82333 10.3558 5.47917V6.925H12.6033L12.3117 9.19583H10.355V15H14.1667C14.3877 15 14.5996 14.9122 14.7559 14.7559C14.9122 14.5996 15 14.3877 15 14.1667V0.833333C15 0.61232 14.9122 0.400358 14.7559 0.244078C14.5996 0.0877973 14.3877 0 14.1667 0Z" fill="white"/>
</svg>
