<?xml version="1.0" encoding="iso-8859-1"?>
<!-- Generator: Adobe Illustrator 19.0.0, SVG Export Plug-In . SVG Version: 6.00 Build 0)  -->
<svg version="1.1" id="Capa_1" xmlns="http://www.w3.org/2000/svg" xmlns:xlink="http://www.w3.org/1999/xlink" x="0px" y="0px"
	 viewBox="0 0 512 512" style="enable-background:new 0 0 512 512;" xml:space="preserve">
<path style="fill:#78B9EB;" d="M238.925,385.537c-3.402,0-6.425-2.217-7.436-5.488l-27.65-89.583l-17.62,53.073
	c-1.02,3.072-3.836,5.192-7.07,5.324c-3.24,0.143-6.213-1.753-7.48-4.732l-12.122-28.516h-51.215c-4.298,0-7.783-3.485-7.783-7.783
	s3.485-7.783,7.783-7.783h56.364c3.122,0,5.942,1.865,7.163,4.738l6.077,14.295l18.786-56.586c1.067-3.211,4.046-5.354,7.47-5.33
	c3.383,0.036,6.356,2.254,7.355,5.488l26.326,85.294l31.277-134.363c0.796-3.418,3.782-5.882,7.289-6.013
	c3.478-0.142,6.669,2.102,7.719,5.45l43.921,140.206l17.102-48.009c1.104-3.101,4.041-5.171,7.332-5.171h51.157
	c4.3,0,7.783,3.485,7.783,7.783s-3.484,7.783-7.783,7.783h-45.667l-23.065,64.75c-1.124,3.153-4.14,5.242-7.482,5.17
	c-3.347-0.064-6.278-2.261-7.278-5.455l-42.34-135.159l-31.331,134.596c-0.797,3.425-3.791,5.889-7.306,6.014
	C239.11,385.536,239.018,385.537,238.925,385.537z"/>
<path style="fill:#891C00;" d="M458.762,273.144c-0.025,0-0.051,0-0.076,0c-4.298-0.042-7.749-3.56-7.709-7.858l0.216-22.445
	c0.008-0.832,0.014-1.665,0.014-2.499c0-20.973-2.571-41.32-7.639-60.478c-9.395-35.515-26.117-65.481-49.702-89.066
	c-36.447-36.447-84.889-56.728-136.402-57.106l-1.426-0.005c-72.321,0-138.456,40.505-172.595,105.707
	c-1.994,3.808-6.698,5.278-10.507,3.286c-3.808-1.994-5.279-6.698-3.286-10.507c17.652-33.713,43.978-62.172,76.132-82.299
	c33.623-21.047,72.361-32.022,111.792-31.749c55.629,0.409,107.94,22.309,147.298,61.666c25.554,25.554,43.636,57.884,53.744,96.091
	c5.412,20.456,8.156,42.143,8.156,64.46c0,0.883-0.005,1.765-0.014,2.647l-0.216,22.446
	C466.503,269.708,463.025,273.144,458.762,273.144z M53.24,273.144c-4.298,0-7.783-3.485-7.783-7.783v-34.885
	c0-23.45,3.849-46.556,11.439-68.675c1.395-4.066,5.824-6.23,9.888-4.836c4.066,1.395,6.231,5.822,4.836,9.888
	c-7.031,20.49-10.596,41.896-10.597,63.623v34.885C61.024,269.659,57.539,273.144,53.24,273.144z"/>
<path style="fill:#FF3501;" d="M403.669,372.11h54.405c22.892,0,41.451-18.559,41.451-41.451v-42.746
	c0-22.892-18.559-41.451-41.451-41.451h-54.405L403.669,372.11L403.669,372.11z"/>
<path style="fill:#891C00;" d="M221.064,491.348h-31.092c-29.454,0-52.378-8.917-68.135-26.502
	c-13.928-15.545-21.29-37.303-21.29-62.924v-29.813c0-4.298,3.485-7.783,7.783-7.783c4.298,0,7.783,3.485,7.783,7.783v29.813
	c0,22.206,7.197,73.858,73.858,73.858h31.092c4.298,0,7.783,3.485,7.783,7.783S225.363,491.348,221.064,491.348z"/>
<path style="fill:#FF3501;" d="M108.331,372.11H53.926c-22.892,0-41.451-18.559-41.451-41.451v-42.746
	c0-22.892,18.559-41.451,41.451-41.451h54.405V372.11z"/>
<path style="fill:#FF7956;" d="M108.331,401.444L108.331,401.444c-14.308,0-25.907-11.599-25.907-25.907V243.035
	c0-14.308,11.599-25.907,25.907-25.907l0,0c14.308,0,25.907,11.599,25.907,25.907v132.502
	C134.238,389.845,122.639,401.444,108.331,401.444z"/>
<path style="fill:#FF5023;" d="M459.042,156.581l-6.631,6.631c-10.7,10.7-28.705,7.254-34.89-6.548
	C389.895,94.926,327.887,51.806,256,51.806c-26.889,0-52.387,6.03-75.229,16.812c-38.232,18.047-69.002,49.398-86.292,88.045
	c-6.185,13.803-24.191,17.248-34.89,6.548l-6.631-6.631c-6.393-6.393-8.126-16.096-4.307-24.284
	C66.522,93.971,94.718,61.406,129.64,38.17C165.858,14.062,209.31,0,256,0c91.688,0,170.933,54.224,207.349,132.296
	C467.168,140.485,465.435,150.188,459.042,156.581z"/>
<path style="fill:#FF7956;" d="M403.669,401.444L403.669,401.444c14.308,0,25.907-11.599,25.907-25.907V243.035
	c0-14.308-11.599-25.907-25.907-25.907l0,0c-14.308,0-25.907,11.599-25.907,25.907v132.502
	C377.762,389.845,389.361,401.444,403.669,401.444z"/>
<path style="fill:#CD2A00;" d="M247.543,511.996h-39.522c-16.053,0-29.188-13.134-29.188-29.188l0,0
	c0-16.053,13.134-29.188,29.188-29.188h39.522c16.053,0,29.188,13.134,29.188,29.188l0,0
	C276.732,498.862,263.597,511.996,247.543,511.996z"/>
<path style="fill:#FF3501;" d="M154.92,52.335c0,9.849,1.193,19.5,3.497,28.913c-27.844,18.473-50.166,44.635-63.938,75.416
	c-6.185,13.803-24.191,17.248-34.89,6.548l-6.631-6.631c-6.393-6.393-8.126-16.096-4.307-24.284
	C66.522,93.971,94.718,61.406,129.64,38.17c9.288-6.185,19.054-11.706,29.224-16.49C156.269,31.642,154.92,41.885,154.92,52.335z"/>
<path style="fill:#CD2A00;" d="M108.334,328.292v43.815H53.923c-22.893,0-41.449-18.556-41.449-41.449v-42.3
	C37.879,310.982,71.306,325.697,108.334,328.292z"/>
<path style="fill:#FF6243;" d="M134.237,318.98v56.562c0,14.301-11.602,25.903-25.903,25.903c-14.311,0-25.913-11.602-25.913-25.903
	v-60.277c12.069,2.812,24.699,4.307,37.703,4.307C124.876,319.571,129.588,319.374,134.237,318.98z"/>
<path style="fill:#CD2A00;" d="M499.526,287.912v42.746c0,22.893-18.556,41.449-41.449,41.449h-54.411v-42.819
	c4.442,0.623,8.977,0.944,13.585,0.944c34.454,0,64.758-17.798,82.203-44.697C499.505,286.324,499.526,287.113,499.526,287.912z"/>
<path style="fill:#FF6243;" d="M429.579,314.303v61.24c0,14.301-11.602,25.903-25.913,25.903c-14.301,0-25.903-11.602-25.903-25.903
	v-68.763c12.08,5.334,25.436,8.292,39.488,8.292C421.422,315.071,425.542,314.811,429.579,314.303z"/>
<path style="fill:#AB2300;" d="M276.735,482.807c0,8.022-3.279,15.328-8.572,20.621S255.564,512,247.542,512h-39.519
	c-16.054,0-29.193-13.138-29.193-29.193c0-5.303,1.432-10.295,3.944-14.591c5.064,8.707,14.498,14.591,25.249,14.591h39.519
	c8.022,0,15.328-3.29,20.621-8.572c1.795-1.795,3.352-3.819,4.628-6.019C275.303,472.512,276.735,477.504,276.735,482.807z"/>
<g>
</g>
<g>
</g>
<g>
</g>
<g>
</g>
<g>
</g>
<g>
</g>
<g>
</g>
<g>
</g>
<g>
</g>
<g>
</g>
<g>
</g>
<g>
</g>
<g>
</g>
<g>
</g>
<g>
</g>
</svg>
