<svg xmlns="http://www.w3.org/2000/svg" viewBox="0 0 557.1 701.22"><defs><style>.cls-1{opacity:0.08;}.cls-2{fill:#fa9a1c;opacity:0.35;}</style></defs><g id="Layer_2" data-name="Layer 2"><g id="Layer_1-2" data-name="Layer 1"><g class="cls-1"><circle class="cls-2" cx="159.76" cy="192.68" r="36.59"/><circle class="cls-2" cx="298.78" cy="372.56" r="36.59"/><circle class="cls-2" cx="347.56" cy="183.54" r="36.59"/><circle class="cls-2" cx="178.05" cy="283.54" r="36.59"/><circle class="cls-2" cx="50" cy="46.95" r="36.59"/><circle class="cls-2" cx="520.51" cy="367.07" r="36.59"/><circle class="cls-2" cx="141.46" cy="616.46" r="36.59"/><circle class="cls-2" cx="356.1" cy="451.83" r="36.59"/><circle class="cls-2" cx="274.39" cy="549.39" r="36.59"/><circle class="cls-2" cx="96.34" cy="356.71" r="36.59"/><circle class="cls-2" cx="310.98" cy="73.78" r="36.59"/><circle class="cls-2" cx="291.46" cy="283.54" r="36.59"/><circle class="cls-2" cx="410.76" cy="330.49" r="36.59"/><circle class="cls-2" cx="483.93" cy="497.56" r="36.59"/><circle class="cls-2" cx="159.76" cy="471.95" r="36.59"/><circle class="cls-2" cx="520.51" cy="628.05" r="36.59"/><circle class="cls-2" cx="447.34" cy="146.95" r="36.59"/><circle class="cls-2" cx="396.34" cy="36.59" r="36.59"/><circle class="cls-2" cx="262.2" cy="183.54" r="36.59"/><circle class="cls-2" cx="36.59" cy="427.44" r="36.59"/><circle class="cls-2" cx="50" cy="220.12" r="36.59"/><circle class="cls-2" cx="169.51" cy="61.59" r="36.59"/><circle class="cls-2" cx="510.98" cy="61.59" r="36.59"/><circle class="cls-2" cx="503.66" cy="251.83" r="36.59"/><circle class="cls-2" cx="359.76" cy="653.05" r="36.59"/><circle class="cls-2" cx="196.34" cy="384.76" r="36.59"/><circle class="cls-2" cx="50" cy="525" r="36.59"/><circle class="cls-2" cx="401.22" cy="573.17" r="36.59"/><circle class="cls-2" cx="237.8" cy="664.63" r="36.59"/><circle class="cls-2" cx="396.34" cy="256.71" r="36.59"/></g></g></g></svg>