<svg xmlns="http://www.w3.org/2000/svg" viewBox="0 0 2958.46 2807.32"><defs><style>.cls-1{fill:#8e714e;}.cls-1,.cls-2,.cls-3,.cls-4,.cls-5,.cls-6{fill-rule:evenodd;}.cls-2{fill:#442d22;}.cls-3{fill:#fff;}.cls-4{fill:#a6a385;}.cls-5{fill:#499d4a;}.cls-6{fill:#58aa50;}</style></defs><g id="Layer_2" data-name="Layer 2"><g id="Layer_1-2" data-name="Layer 1"><path class="cls-1" d="M2757.74,1161c-2.67,1.78-5.34,21.34-5.34,32-.53,71.12-1.07,259.59-1.07,387.59,0,3.56,1.6,10.66,3.2,10.66,8,1.78,27.23,3.56,43.78,3.56,23,0,36.3-10.66,43.78-21.33,19.21-32,28.29-101.35,28.29-177.8,0-172.45-36.3-238.24-90.22-238.24-3.74-1.76-14.41-1.76-22.42,3.56Zm137.73,794.73c0-176-39-273.8-109.44-273.8-3.2,0-25.62-1.78-31,1.78a15.81,15.81,0,0,0-3.74,10.67c0,126.23-.53,327.14,1.07,405.35,1.07,33.79,8.54,81.79,17.62,96,9.6,17.78,31.49,21.32,46.44,21.32,42.17,0,79-78.21,79-261.34Zm-246.63-892.51c5.33,0,21.35,5.33,62.45,5.33,39,0,69.94-3.55,107.84-3.55,46.44,0,110.5,55.11,110.5,286.23,0,113.8-24,204.47-55.52,248.92a5.85,5.85,0,0,0,0,7.1c44.85,37.35,84.35,129.8,84.35,304,0,170.69-32,279.13-78.47,346.7-28.3,40.88-63.53,55.11-99.3,55.11-27.22,0-100.36-10.67-140.93-7.11-4.27-5.34,3.74-69.35,7.47-80,9.61-1.78,17.08-3.56,27.23-14.22,14.41-12.44,16-26.67,18.15-99.56,1.07-62.23,1.07-282.7,1.07-439.15,0-215.13.53-360.92,0-432-.54-55.11-6.41-72.89-18.15-83.57-9.08-5.32-24-12.44-36.3-17.77-2.68-8.89,6.4-69.34,9.61-76.45Zm-308,1105.86c12.81,33.77,37.9,48,60.32,48,28.83,0,57.66-17.76,85.42-101.33,28.29-85.34,48-216.9,48-426.7,0-200.91-23-364.47-69.93-460.47-26.69-55.13-60.86-78.23-100.36-78.23-11.75,0-23,1.78-29.9,12.44-1.6,3.56-5.34,19.56-5.34,28.44-1.06,35.57-1.06,309.36-1.06,469.38,0,165.35,0,396.47,1.06,423.13,0,26.68,3.74,67.57,11.75,85.35ZM2219.62,1063.19c10.15,0,49.12,5.33,67.8,5.33,33.64,0,57.66-5.33,121.18-5.33,53.39,0,98.23,48,130.26,138.67,39,112,59.26,266.7,59.26,455.15,0,268.46-36.84,423.15-73.67,512-36.83,90.68-84.88,144-153.21,144-36.3,0-98.76-3.56-150.55-5.34h-.53c-2.67-16,4.27-78.22,8.54-80,13.88-5.34,17.62-7.12,24.56-16,11.21-14.22,13.35-33.78,14.95-99.56,1.6-122.68,1.06-270.24,1.06-437.37,0-119.12.54-352-.53-426.71-1.6-62.21-9.61-78.21-25.62-88.89-8-5.32-18.69-12.44-33.63-17.77-2.14-12.45,7.47-67.56,10.13-78.23Z"/><path class="cls-2" d="M1573.68,2238.38c-13.34-5.33-23-12.44-34.7-30.22-1.6-3.56-4.27-21.33-4.27-28.44-1.07-62.23-1.07-240-1.07-359.14,0-96-4.8-179.57-17.08-238.24-14.42-67.57-35.23-106.68-61.93-106.68-23.49,0-55,53.35-81.14,128-.53,1.76-4.81,14.22-4.27-5.34,0-19.56,1.07-58.67,1.6-85.33.54-24.91-3.73-37.35-3.73-37.35-17.09,28.45-65.13,65.79-82.75,71.11-12.81,8.9-16,49.79-2.67,64h.54c14.41,14.23,24,30.23,31.49,46.23,5.34,14.22,4.8,33.78,4.8,49.79.54,133.34.54,337.79-1.06,449.81-.54,44.45-4.27,60.43-13.88,67.55l1.06-1.78c-7.47,5.34-13.34,10.67-22.42,14.22-3.2,10.67-3.2,67.57,0,80,5.88,0,36.84-5.34,62.47-5.34,35.23,0,53.38,5.34,62.45,5.34,3.74-14.23,4.81-67.57,2.67-80-10.14-1.77-17.61-5.32-24.55-12.44-9.61-7.12-12.28-23.1-12.82-60.45-1.06-94.23-1.06-293.35-1.06-428.47,0-37.34,3.2-55.12,6.4-65.79,12.28-35.55,32-60.45,49.65-60.45,17.08,0,28.29,17.79,36.83,40.91,11.75,32,15.48,78.21,17.09,112,2.66,76.45,1.6,227.57,1.6,359.14,0,71.11-1.6,88.89-9.61,97.77-3.74,5.34-13.35,12.46-24.56,16-3.74,12.44-2.67,67.56,0,80,15.48,0,33.63-5.34,60.33-5.34,33.09,0,54.45,5.34,63,5.34,2.67-10.67,3.74-62.23,1.6-76.46Zm147.88-679.15c-28.3,0-45.91,72.89-45.91,186.67,0,115.56,15.47,248.91,59.25,248.91,7.47,0,21.35-10.67,27.76-35.55,10.14-32,17.09-96,17.09-163.57,0-147.56-21.9-236.46-58.19-236.46Zm-3.74,785.83c-10.68,0-18.16,10.66-23,19.56-22.42,48-32.56,94.22-32.56,149.35,0,51.55,5.87,92.44,18.68,128,15.48,44.45,36.84,65.79,64.06,65.79,54.45,0,78.48-97.79,78.48-193.79,0-67.57-10.15-112-31-136.9-15-21.35-42.18-32-74.74-32Zm3.74,462.26c-32.57,0-56.06-23.12-76.34-74.67-19.76-49.79-28.3-124.46-28.3-176,0-14.23,1.07-53.35,10.68-88.9,5.87-21.34,18.68-62.23,49.11-131.56,1.07-1.78,1.6-3.56,1.6-7.12a19.15,19.15,0,0,0-2.13-8.88c-25.09-32-32.57-83.58-34.7-112v-3.56c-.53-10.66-1.6-21.33,3.2-32,3.74-8.89,9.08-19.55,15-32,9.07-17.78,18.68-37.35,24.56-53.35a36.13,36.13,0,0,0,1.07-10.66,19,19,0,0,0-2.14-8.88c-37.37-40.91-56-133.36-56-272,0-90.67,12.27-172.46,34.16-224,15-39.13,52.32-87.12,76.87-87.12h1.61c25.09,1.76,39,19.55,58.72,42.67,10.67,12.44,20.82,17.76,34.7,17.76,20.82,0,29.89-21.32,37.36-46.21.54,3.55,1.61,12.45,2.14,35.55s-1.6,56.89-6.94,81.79c-4.27,19.55-13.88,33.79-23.49,33.79h-2.67c-9.61-3.56-13.88-7.12-13.88-7.12l-2.13,3.56c-.54,3.56,0,7.1.53,12.44l.54,3.56c1.06,16,3.2,64,3.2,76.45,0,145.79-17.62,209.78-36.3,257.79-18.15,44.44-39,72.89-62.46,80-.54,0-2.67,0-7.47,1.78-2.68,0-6.41,1.78-7,1.78h-.53c-4.27,3.54-14.94,21.32-14.94,51.55,0,26.66,4.8,58.67,27.75,64,4.81,1.78,9.61,1.78,14.95,3.56,30.43,7.1,68.33,16,86,35.55,24.55,30.22,40,103.11,40,190.24,0,131.57-28.3,254.24-75.27,330.68-23,33.78-45.91,51.57-71,51.57Zm304.28-1239.2c-11.21,0-21.35,8.88-28.82,26.66-20.82,42.67-31.5,128-31.5,252.46,0,232.92,35.23,396.48,85.41,396.48,15,0,26.7-14.22,36.84-42.66,15.48-42.69,23.49-128,23.49-247.14,0-231.12-34.7-385.8-85.42-385.8Zm9.61,760.94c-90.75,0-123.31-222.24-123.31-430.25,0-145.79,17.61-257.8,52.84-337.81,25.1-51.55,55-80,81.68-80,69.4,0,118,165.35,118,403.59,0,161.78-19.22,289.79-56,368-17.62,39.11-48.05,76.45-73.14,76.45Zm-951.3-760.94c-11.21,0-21.35,8.88-28.83,26.66-20.82,42.67-31.5,128-31.5,252.46,0,232.92,35.24,396.48,85.42,396.48,15,0,26.69-14.22,36.84-42.66,15.47-42.69,23.49-128,23.49-247.14,0-231.12-34.17-385.8-85.42-385.8Zm9.61,760.94c-90.75,0-123.32-222.24-123.32-430.25,0-145.79,17.62-257.8,52.85-337.81,25.09-51.55,55-80,81.68-80,69.4,0,118,165.35,118,403.59,0,161.78-19.22,289.79-56.06,368-17.08,39.11-47.51,76.45-73.13,76.45Zm-610.18-17.78c-1.07-5.33-2.14-21.33-1.6-40.89a185.88,185.88,0,0,1,1.6-26.67c11.21-5.34,17.08-10.67,23.49-16,10.68-8.9,14.95-28.44,15.48-72.89,1.6-106.68,1.6-309.37,1.07-449.81v-3.56c0-16,0-35.57-5.87-49.79-8.55-17.77-18.69-33.77-32-46.23-4.8-5.32-8-14.22-7.47-24.88,0-10.66,3.2-23.11,10.15-26.67,17.61-5.34,63.52-42.66,81.67-69.33,1.07,3.54,2.67,14.22,2.67,28.45l-.53,19.54c-.54,19.56-1.07,42.68-1.07,65.79,0,7.1,2.14,12.44,4.27,12.44,1.07,0,2.14-1.78,3.21-3.56,34.16-88.89,65.12-120.9,81.13-120.9,26.17,0,46.45,40.91,61.93,126.24,1.07,5.34,2.14,7.11,3.74,7.11,1.07,0,2.67-1.77,3.2-5.33,31.5-80,63-128,83.81-128,49.65,0,79,122.68,79,330.7,0,58.67,0,135.12-.53,204.47,0,62.21-.53,119.12-.53,160,0,8.89,3.73,37.33,9.61,42.67,7.47,12.44,17.61,17.78,31,24.89h.53c1.07,12.44-1.07,58.67-3.2,67.57a40.28,40.28,0,0,1-13.34-1.78,239.73,239.73,0,0,0-40.58-3.56c-33.1,0-50.18,1.78-66.73,5.34-1.07-14.23-1.6-56.89,0-67.57,9.61-5.33,14.41-10.67,20.29-16,10.68-10.67,13.34-26.67,13.88-72.9,0-33.77,2.13-321.79-1.07-391.14-3.2-71.11-19.22-154.67-54.45-154.67-13.35,0-34.17,17.78-54.46,69.34-1.06,3.55-2.13,12.44-2.13,17.78v1.78c2.13,37.32,2.13,80,2.13,145.78v115.56c0,80-.53,154.69,0,211.58,0,39.12,7,48,12.82,55.12,3.2,1.77,5.33,3.55,8,5.32,4.8,3.56,9.61,7.12,17.08,12.45,1.07,7.12,1.07,30.22-.54,49.78-.53,10.67-1.6,16-2.13,17.79-18.15-1.78-36.83-3.56-64.06-3.56-8,0-21.89,1.78-33.64,1.78-9.61,0-18.68,1.78-24,1.78-.54-3.56-1.61-16-1.61-35.57,0-16,1.07-28.44,2.14-32,2.67-1.78,4.8-3.55,7.47-3.55,6.4-3.56,11.74-7.12,17.08-10.67,9.08-8.89,12.28-24.89,12.82-64,1.6-88.89,3.2-343.13-.54-407.14-6.4-103.12-24-154.69-52.31-154.69-16.55,0-37.37,26.67-54.46,69.35-2.66,7.1-4.8,24.89-4.8,40.89v104.9c0,128,0,288,.53,357.35.54,21.33,2.67,46.23,15,55.11,2.67,1.78,6.94,5.34,12.28,7.12l9.61,5.33c1.07,10.68.53,53.34-1.6,67.57-5.34,0-11.75-1.78-19.22-1.78a265.34,265.34,0,0,0-41.64-3.56,246.77,246.77,0,0,0-42.71,3.56c-7.47-3.56-13.35-3.56-19.75-3.56Z"/><path class="cls-3" d="M202.78,2738l-21.89-24.9s2.67-371.58-37.36-398.24c-26.7-103.12,4.27-4373.66,100.35-14.23,0,0-33.09,55.11-39,149.35-6.41,92.45-2.14,288-2.14,288Z"/><path class="cls-4" d="M202.78,2738l-21.89-24.9s2.67-371.58-37.36-398.24c-26.7-103.12,4.27-4373.66,100.35-14.23,0,0-33.09,55.11-39,149.35-6.41,92.45-2.14,288-2.14,288Z"/><path class="cls-3" d="M214.53,2378.85s191.64-419.59,146.8-1292.55C318.09,451.59,216.12,243.58,204.92,163.57c-12.28-56.89-24-156.45-24-156.45l8,1765.45c0,1.78-16.55,540.49,25.63,606.28"/><path class="cls-5" d="M214.53,2378.85s191.64-419.59,146.8-1292.55C318.09,451.59,216.12,243.58,204.92,163.57c-12.28-56.89-24-156.45-24-156.45l8,1765.45c0,1.78-16.55,540.49,25.63,606.28"/><path class="cls-3" d="M169.68,2402S-10.22,1993,.46,1273C10.6,552.93,137.65,199.13,162.21,135.12c16-56.89,16.55-78.23,17.62-135.12C191,80,188.9,1196.53,190.5,1328.1,195.31,1834.8,182,2306,169.68,2402Z"/><path class="cls-6" d="M169.68,2402S-10.22,1993,.46,1273C10.6,552.93,137.65,199.13,162.21,135.12c16-56.89,16.55-78.23,17.62-135.12C191,80,188.9,1196.53,190.5,1328.1,195.31,1834.8,182,2306,169.68,2402Z"/></g></g></svg>