<svg xmlns="http://www.w3.org/2000/svg" viewBox="0 0 2723.17 1354.88"><defs><style>.cls-1{fill:#8e714e;}.cls-1,.cls-2,.cls-3,.cls-4,.cls-5,.cls-6{fill-rule:evenodd;}.cls-2{fill:#442d22;}.cls-3{fill:#fff;}.cls-4{fill:#a6a385;}.cls-5{fill:#499d4a;}.cls-6{fill:#58aa50;}</style></defs><g id="Layer_2" data-name="Layer 2"><g id="Layer_1-2" data-name="Layer 1"><path class="cls-1" d="M2538.41,560.31c-2.46.86-4.91,10.3-4.91,15.45-.49,34.32-1,125.28-1,187,0,1.72,1.47,5.15,2.95,5.15,7.37.86,25.06,1.72,40.29,1.72,21.13,0,33.42-5.15,40.3-10.29,17.69-15.45,26-48.92,26-85.82,0-83.22-33.41-115-83-115-3.44-.85-13.27-.85-20.64,1.72Zm126.78,383.56c0-85-35.88-132.15-100.74-132.15-2.94,0-23.58-.86-28.5.86-1.47.86-3.44,2.58-3.44,5.16,0,60.91-.49,157.88,1,195.63,1,16.3,7.86,39.47,16.21,46.34,8.84,8.58,29,10.29,42.75,10.29,38.82,0,72.73-37.75,72.73-126.13Zm-227-430.75c4.91,0,19.65,2.57,57.49,2.57,35.87,0,64.37-1.71,99.26-1.71,42.75,0,101.71,26.6,101.71,138.14,0,54.92-22.11,98.68-51.1,120.14a1.88,1.88,0,0,0,0,3.42c41.27,18,77.64,62.65,77.64,146.74,0,82.37-29.48,134.71-72.23,167.32-26.05,19.73-58.48,26.6-91.4,26.6-25.06,0-92.38-5.15-129.72-3.43-3.94-2.58,3.43-33.47,6.87-38.62,8.85-.86,15.73-1.72,25.06-6.86,13.27-6,14.74-12.87,16.71-48.05,1-30,1-136.44,1-211.94,0-103.83.5-174.19,0-208.51-.49-26.6-5.89-35.18-16.7-40.34-8.36-2.57-22.12-6-33.42-8.57-2.46-4.3,5.9-33.47,8.85-36.9Zm-283.53,533.72c11.79,16.29,34.89,23.16,55.53,23.16,26.53,0,53.06-8.58,78.62-48.91,26-41.18,44.22-104.68,44.22-205.93,0-97-21.13-175.91-64.37-222.24-24.57-26.6-56-37.75-92.38-37.75-10.81,0-21.13.85-27.52,6-1.47,1.72-4.91,9.44-4.91,13.73-1,17.16-1,149.3-1,226.53,0,79.8,0,191.34,1,204.21,0,12.88,3.44,32.61,10.81,41.2ZM2043.09,513.12c9.34,0,45.21,2.57,62.41,2.57,31,0,53.07-2.57,111.54-2.57,49.14,0,90.42,23.17,119.9,66.93,35.87,54.06,54.55,128.71,54.55,219.66,0,129.57-33.91,204.22-67.82,247.13-33.9,43.76-78.13,69.5-141,69.5-33.41,0-90.91-1.72-138.57-2.58h-.49c-2.46-7.72,3.93-37.75,7.86-38.61,12.77-2.58,16.21-3.43,22.6-7.72,10.32-6.87,12.29-16.31,13.76-48.05,1.47-59.21,1-130.43,1-211.09,0-57.49.49-169.9-.49-205.93-1.47-30-8.84-37.75-23.58-42.91a198,198,0,0,0-31-8.57c-2-6,6.88-32.61,9.33-37.76Z"/><path class="cls-2" d="M1448.52,1080.3c-12.28-2.58-21.13-6-31.94-14.59-1.47-1.72-3.93-10.29-3.93-13.73-1-30-1-115.84-1-173.33,0-46.34-4.42-86.66-15.73-115-13.26-32.61-32.43-51.48-57-51.48-21.62,0-50.61,25.75-74.69,61.78-.49.86-4.42,6.87-3.93-2.57,0-9.44,1-28.32,1.48-41.19.49-12-3.44-18-3.44-18-15.73,13.73-59.95,31.75-76.17,34.32-11.79,4.29-14.74,24-2.45,30.89h.49a97.74,97.74,0,0,1,29,22.31c4.91,6.87,4.42,16.31,4.42,24,.49,64.35.49,163-1,217.09-.49,21.45-3.93,29.17-12.78,32.6l1-.86c-6.87,2.58-12.28,5.15-20.63,6.87-3,5.14-3,32.61,0,38.61,5.4,0,33.9-2.57,57.49-2.57,32.43,0,49.14,2.57,57.49,2.57,3.44-6.86,4.43-32.61,2.46-38.61-9.34-.86-16.22-2.57-22.6-6-8.85-3.43-11.31-11.15-11.8-29.17-1-45.48-1-141.58-1-206.79,0-18,3-26.61,5.89-31.75,11.3-17.16,29.49-29.18,45.7-29.18,15.73,0,26,8.59,33.91,19.74,10.81,15.44,14.25,37.75,15.72,54.06,2.46,36.9,1.48,109.83,1.48,173.33,0,34.32-1.48,42.9-8.85,47.19-3.44,2.57-12.28,6-22.6,7.72-3.44,6-2.46,32.61,0,38.62,14.25,0,31-2.58,55.53-2.58,30.46,0,50.12,2.58,58,2.58,2.45-5.15,3.44-30,1.47-36.9Zm136.12-327.78c-26.05,0-42.26,35.18-42.26,90.1,0,55.77,14.25,120.12,54.54,120.12,6.88,0,19.66-5.15,25.55-17.16,9.34-15.44,15.73-46.33,15.73-78.94,0-71.21-20.15-114.12-53.56-114.12Zm-3.45,379.26c-9.82,0-16.7,5.15-21.12,9.44-20.64,23.17-30,45.48-30,72.08,0,24.88,5.41,44.61,17.2,61.78,14.25,21.45,33.9,31.75,59,31.75,50.12,0,72.23-47.2,72.23-93.53,0-32.61-9.34-54.06-28.5-66.07-13.76-10.3-38.82-15.45-68.8-15.45Zm3.45,223.1c-30,0-51.6-11.16-70.27-36-18.18-24-26-60.07-26-84.95,0-6.86,1-25.74,9.82-42.9,5.41-10.3,17.2-30,45.21-63.49a4,4,0,0,0,1.47-3.44,6.13,6.13,0,0,0-2-4.29c-23.1-15.44-30-40.33-31.94-54.06V1064c-.49-5.14-1.47-10.29,3-15.44,3.44-4.29,8.35-9.44,13.75-15.44,8.36-8.58,17.2-18,22.61-25.75a9.67,9.67,0,0,0,1-5.14,6.13,6.13,0,0,0-2-4.29c-34.4-19.74-51.6-64.36-51.6-131.29,0-43.76,11.3-83.23,31.45-108.11,13.76-18.88,48.15-42,70.76-42h1.48c23.09.86,35.86,9.44,54,20.6,9.83,6,19.17,8.57,31.95,8.57,19.16,0,27.51-10.29,34.39-22.3.49,1.71,1.48,6,2,17.15s-1.48,27.46-6.39,39.48c-3.93,9.43-12.77,16.3-21.62,16.3h-2.46c-8.85-1.71-12.78-3.43-12.78-3.43l-2,1.72c-.49,1.71,0,3.42.49,6l.49,1.72c1,7.72,3,30.88,3,36.9,0,70.36-16.21,101.24-33.41,124.41-16.71,21.45-35.87,35.18-57.49,38.62a36,36,0,0,0-6.88.85,50.07,50.07,0,0,0-6.39.86h-.49c-3.94,1.71-13.76,10.3-13.76,24.88,0,12.87,4.42,28.32,25.55,30.9,4.42.85,8.84.85,13.76,1.71,28,3.43,62.9,7.73,79.11,17.16,22.6,14.59,36.85,49.77,36.85,91.82,0,63.49-26,122.7-69.28,159.59-21.13,16.31-42.26,24.89-65.35,24.89Zm280.09-598.07a33.16,33.16,0,0,0-26.54,12.87c-19.16,20.59-29,61.78-29,121.84,0,112.41,32.43,191.35,78.62,191.35,13.76,0,24.57-6.86,33.9-20.59,14.25-20.6,21.63-61.78,21.63-119.27,0-111.55-31.95-186.2-78.62-186.2Zm8.84,367.25c-83.54,0-113.51-107.26-113.51-207.65,0-70.36,16.21-124.42,48.64-163,23.1-24.88,50.62-38.6,75.19-38.6,63.87,0,108.59,79.8,108.59,194.78,0,78.08-17.69,139.86-51.59,177.61-16.22,18.88-44.23,36.9-67.32,36.9ZM997.93,756.81a33.16,33.16,0,0,0-26.54,12.87c-19.16,20.59-29,61.78-29,121.84,0,112.41,32.43,191.35,78.62,191.35,13.76,0,24.57-6.86,33.91-20.59,14.24-20.6,21.62-61.78,21.62-119.27,0-111.55-31.45-186.2-78.62-186.2Zm8.84,367.25c-83.53,0-113.51-107.26-113.51-207.65,0-70.36,16.22-124.42,48.65-163,23.09-24.88,50.61-38.6,75.18-38.6,63.88,0,108.6,79.8,108.6,194.78,0,78.08-17.7,139.86-51.6,177.61-15.73,18.88-43.73,36.9-67.32,36.9Zm-561.65-8.58c-1-2.57-2-10.29-1.47-19.74a48,48,0,0,1,1.47-12.87,116.29,116.29,0,0,0,21.62-7.72c9.83-4.29,13.76-13.73,14.25-35.18,1.48-51.48,1.48-149.31,1-217.09v-1.72c0-7.72,0-17.16-5.4-24a97.25,97.25,0,0,0-29.49-22.31c-4.42-2.57-7.37-6.87-6.87-12,0-5.14,2.94-11.15,9.33-12.86,16.22-2.58,58.47-20.6,75.18-33.47,1,1.71,2.46,6.87,2.46,13.73l-.49,9.44c-.49,9.44-1,20.6-1,31.75,0,3.43,2,6,3.93,6,1,0,2-.86,3-1.72,31.44-42.9,59.94-58.34,74.68-58.34,24.09,0,42.76,19.74,57,60.92,1,2.58,2,3.43,3.44,3.43a3.39,3.39,0,0,0,2.94-2.57c29-38.62,58-61.78,77.15-61.78,45.7,0,72.73,59.2,72.73,159.6,0,28.31,0,65.21-.49,98.68,0,30-.5,57.49-.5,77.22,0,4.29,3.44,18,8.85,20.59,6.88,6,16.21,8.59,28.5,12h.49c1,6-1,28.32-2.95,32.61a69.94,69.94,0,0,1-12.28-.85c-9.34-.86-22.61-1.72-37.35-1.72-30.46,0-46.19.86-61.42,2.57-1-6.86-1.47-27.45,0-32.61,8.84-2.57,13.27-5.14,18.67-7.72,9.83-5.15,12.29-12.87,12.78-35.18,0-16.3,2-155.3-1-188.77-2.94-34.32-17.69-74.65-50.12-74.65-12.28,0-31.44,8.58-50.12,33.46a22.71,22.71,0,0,0-2,8.58V822c2,18,2,38.62,2,70.36v55.77c0,38.62-.49,74.66,0,102.11,0,18.89,6.39,23.17,11.8,26.61,3,.85,4.91,1.71,7.37,2.57,4.42,1.72,8.84,3.43,15.72,6,1,3.44,1,14.59-.49,24-.49,5.15-1.48,7.73-2,8.58-16.71-.85-33.91-1.71-59-1.71-7.37,0-20.15.86-31,.86-8.85,0-17.2.85-22.11.85-.49-1.71-1.48-7.72-1.48-17.16,0-7.72,1-13.73,2-15.45,2.46-.86,4.42-1.71,6.88-1.71,5.89-1.71,10.81-3.43,15.72-5.15,8.36-4.29,11.3-12,11.8-30.88,1.47-42.91,2.94-165.61-.5-196.5-5.89-49.77-22.11-74.66-48.15-74.66-15.23,0-34.4,12.87-50.12,33.47-2.46,3.43-4.42,12-4.42,19.74v50.62c0,61.78,0,139,.49,172.47.49,10.29,2.45,22.31,13.76,26.6a62.65,62.65,0,0,0,11.3,3.43l8.84,2.57c1,5.16.5,25.75-1.47,32.61-4.92,0-10.81-.85-17.69-.85-10.32-.86-23.59-1.72-38.33-1.72-17.2,0-29.48.86-39.31,1.72-6.88-1.72-12.28-1.72-18.18-1.72Z"/><path class="cls-3" d="M186.65,1321.42l-20.15-12s2.46-179.34-34.39-192.2c-24.57-49.77,3.93-2110.83,92.38-6.87,0,0-30.46,26.6-35.87,72.08-5.9,44.62-2,139-2,139Z"/><path class="cls-4" d="M186.65,1321.42l-20.15-12s2.46-179.34-34.39-192.2c-24.57-49.77,3.93-2110.83,92.38-6.87,0,0-30.46,26.6-35.87,72.08-5.9,44.62-2,139-2,139Z"/><path class="cls-3" d="M197.46,1148.09S373.87,945.58,332.59,524.27C292.79,218,198.94,117.56,188.62,78.94c-11.3-27.46-22.12-75.5-22.12-75.5l7.38,852c0,.86-15.24,260.86,23.58,292.61"/><path class="cls-5" d="M197.46,1148.09S373.87,945.58,332.59,524.27C292.79,218,198.94,117.56,188.62,78.94c-11.3-27.46-22.12-75.5-22.12-75.5l7.38,852c0,.86-15.24,260.86,23.58,292.61"/><path class="cls-3" d="M156.19,1159.24S-9.41,961.88.42,614.37C9.75,266.86,126.7,96.11,149.31,65.21,164.05,37.76,164.54,27.46,165.53,0c10.31,38.62,8.35,577.48,9.82,641,4.42,244.55-7.86,471.94-19.16,518.27Z"/><path class="cls-6" d="M156.19,1159.24S-9.41,961.88.42,614.37C9.75,266.86,126.7,96.11,149.31,65.21,164.05,37.76,164.54,27.46,165.53,0c10.31,38.62,8.35,577.48,9.82,641,4.42,244.55-7.86,471.94-19.16,518.27Z"/></g></g></svg>