<svg xmlns="http://www.w3.org/2000/svg" viewBox="0 0 1700 1354.88"><defs><style>.cls-1{fill:#8e714e;}.cls-1,.cls-2,.cls-3,.cls-4,.cls-5,.cls-6{fill-rule:evenodd;}.cls-2{fill:#442d22;}.cls-3{fill:#fff;}.cls-4{fill:#a6a385;}.cls-5{fill:#499d4a;}.cls-6{fill:#58aa50;}</style></defs><g id="Layer_2" data-name="Layer 2"><g id="Layer_1-2" data-name="Layer 1"><path class="cls-1" d="M1584.66,560.31c-1.54.86-3.07,10.3-3.07,15.45-.3,34.32-.61,125.28-.61,187,0,1.72.92,5.15,1.84,5.15,4.6.86,15.64,1.72,25.15,1.72,13.19,0,20.86-5.15,25.16-10.29,11-15.45,16.25-48.92,16.25-85.82,0-83.22-20.86-115-51.84-115-2.15-.85-8.28-.85-12.88,1.72Zm79.14,383.56c0-85-22.39-132.15-62.88-132.15-1.84,0-14.73-.86-17.8.86a7,7,0,0,0-2.14,5.16c0,60.91-.31,157.88.61,195.63.61,16.3,4.91,39.47,10.12,46.34,5.52,8.58,18.1,10.29,26.69,10.29,24.24,0,45.4-37.75,45.4-126.13ZM1522.08,513.12c3.07,0,12.27,2.57,35.89,2.57,22.39,0,40.19-1.71,62-1.71,26.68,0,63.49,26.6,63.49,138.14,0,54.92-13.8,98.68-31.9,120.14a2.46,2.46,0,0,0,0,3.42c25.77,18,48.47,62.65,48.47,146.74,0,82.37-18.41,134.71-45.09,167.32-16.26,19.73-36.51,26.6-57.06,26.6-15.65,0-57.67-5.15-81-3.43-2.46-2.58,2.14-33.47,4.29-38.62,5.52-.86,9.82-1.72,15.64-6.86,8.29-6,9.21-12.87,10.43-48.05.62-30,.62-136.44.62-211.94,0-103.83.31-174.19,0-208.51-.31-26.6-3.68-35.18-10.43-40.34-5.22-2.57-13.81-6-20.86-8.57-1.54-4.3,3.68-33.47,5.52-36.9Zm-177,533.72c7.37,16.29,21.78,23.16,34.67,23.16,16.56,0,33.12-8.58,49.08-48.91,16.26-41.18,27.6-104.68,27.6-205.93,0-97-13.19-175.91-40.18-222.24-15.34-26.6-35-37.75-57.67-37.75-6.75,0-13.19.85-17.18,6a44.83,44.83,0,0,0-3.07,13.73c-.61,17.16-.61,149.3-.61,226.53,0,79.8,0,191.34.61,204.21,0,12.88,2.15,32.61,6.75,41.2Zm-69.63-533.72c5.83,0,28.22,2.57,39,2.57,19.32,0,33.12-2.57,69.63-2.57,30.67,0,56.44,23.17,74.85,66.93,22.39,54.06,34,128.71,34,219.66,0,129.57-21.17,204.22-42.34,247.13-21.16,43.76-48.77,69.5-88,69.5-20.86,0-56.75-1.72-86.51-2.58h-.31c-1.53-7.72,2.46-37.75,4.91-38.61,8-2.58,10.12-3.43,14.11-7.72,6.44-6.87,7.67-16.31,8.59-48.05.92-59.21.62-130.43.62-211.09,0-57.49.3-169.9-.31-205.93-.92-30-5.52-37.75-14.73-42.91a90.81,90.81,0,0,0-19.32-8.57c-1.23-6,4.29-32.61,5.83-37.76Z"/><path class="cls-2" d="M904.27,1080.3c-7.66-2.58-13.19-6-19.94-14.59-.92-1.72-2.45-10.29-2.45-13.73-.62-30-.62-115.84-.62-173.33,0-46.34-2.75-86.66-9.81-115-8.28-32.61-20.25-51.48-35.58-51.48-13.5,0-31.6,25.75-46.63,61.78-.31.86-2.76,6.87-2.46-2.57,0-9.44.62-28.32.93-41.19.3-12-2.15-18-2.15-18-9.82,13.73-37.43,31.75-47.55,34.32-7.36,4.29-9.2,24-1.53,30.89h.3a76.05,76.05,0,0,1,18.1,22.31c3.07,6.87,2.76,16.31,2.76,24,.31,64.35.31,163-.61,217.09-.31,21.45-2.45,29.17-8,32.6l.62-.86c-4.3,2.58-7.67,5.15-12.89,6.87-1.84,5.14-1.84,32.61,0,38.61,3.38,0,21.17-2.57,35.9-2.57,20.24,0,30.67,2.57,35.89,2.57,2.14-6.86,2.76-32.61,1.53-38.61-5.83-.86-10.12-2.57-14.11-6-5.52-3.43-7.06-11.15-7.37-29.17C788,998.78,788,902.68,788,837.47c0-18,1.84-26.61,3.68-31.75,7.06-17.16,18.41-29.18,28.53-29.18,9.82,0,16.26,8.59,21.17,19.74,6.75,15.44,8.89,37.75,9.81,54.06,1.54,36.9.92,109.83.92,173.33,0,34.32-.92,42.9-5.52,47.19-2.14,2.57-7.67,6-14.11,7.72-2.15,6-1.53,32.61,0,38.62,8.9,0,19.33-2.58,34.67-2.58,19,0,31.28,2.58,36.19,2.58,1.54-5.15,2.15-30,.92-36.9Zm85-327.78c-16.26,0-26.39,35.18-26.39,90.1,0,55.77,8.9,120.12,34,120.12,4.3,0,12.27-5.15,16-17.16,5.83-15.44,9.82-46.33,9.82-78.94,0-71.21-12.58-114.12-33.43-114.12Zm-2.15,379.26c-6.14,0-10.43,5.15-13.19,9.44-12.89,23.17-18.72,45.48-18.72,72.08,0,24.88,3.38,44.61,10.74,61.78,8.9,21.45,21.17,31.75,36.81,31.75,31.29,0,45.1-47.2,45.1-93.53,0-32.61-5.83-54.06-17.8-66.07-8.59-10.3-24.23-15.45-42.94-15.45Zm2.15,223.1c-18.72,0-32.22-11.16-43.87-36-11.35-24-16.26-60.07-16.26-84.95,0-6.86.61-25.74,6.14-42.9,3.37-10.3,10.73-30,28.22-63.49a5.26,5.26,0,0,0,.92-3.44,8.09,8.09,0,0,0-1.23-4.29c-14.42-15.44-18.71-40.33-19.94-54.06V1064c-.3-5.14-.92-10.29,1.84-15.44,2.15-4.29,5.22-9.44,8.59-15.44,5.21-8.58,10.74-18,14.11-25.75a14.66,14.66,0,0,0,.62-5.14,8.09,8.09,0,0,0-1.23-4.29C945.69,978.19,935,933.57,935,866.64c0-43.76,7-83.23,19.63-108.11,8.59-18.88,30.06-42,44.17-42h.93c14.41.86,22.39,9.44,33.74,20.6,6.13,6,12,8.57,19.94,8.57,12,0,17.17-10.29,21.47-22.3.31,1.71.92,6,1.23,17.15s-.92,27.46-4,39.48c-2.46,9.43-8,16.3-13.5,16.3H1057a31.1,31.1,0,0,1-8-3.43l-1.22,1.72c-.31,1.71,0,3.42.3,6l.31,1.72c.61,7.72,1.84,30.88,1.84,36.9,0,70.36-10.12,101.24-20.86,124.41-10.43,21.45-22.39,35.18-35.89,38.62a14.47,14.47,0,0,0-4.29.85,20.25,20.25,0,0,0-4,.86H985c-2.45,1.71-8.59,10.3-8.59,24.88,0,12.87,2.76,28.32,15.95,30.9,2.76.85,5.52.85,8.59,1.71,17.49,3.43,39.27,7.73,49.39,17.16,14.11,14.59,23,49.77,23,91.82,0,63.49-16.26,122.7-43.26,159.59-13.19,16.31-26.38,24.89-40.79,24.89ZM1164.1,756.81c-6.45,0-12.28,4.29-16.57,12.87-12,20.59-18.1,61.78-18.1,121.84,0,112.41,20.25,191.35,49.08,191.35,8.59,0,15.34-6.86,21.17-20.59,8.89-20.6,13.5-61.78,13.5-119.27,0-111.55-19.94-186.2-49.08-186.2Zm5.52,367.25c-52.15,0-70.86-107.26-70.86-207.65,0-70.36,10.12-124.42,30.36-163,14.42-24.88,31.6-38.6,46.94-38.6,39.88,0,67.79,79.8,67.79,194.78,0,78.08-11,139.86-32.21,177.61-10.12,18.88-27.61,36.9-42,36.9ZM623,756.81c-6.45,0-12.27,4.29-16.57,12.87-12,20.59-18.1,61.78-18.1,121.84,0,112.41,20.25,191.35,49.08,191.35,8.59,0,15.34-6.86,21.17-20.59,8.9-20.6,13.5-61.78,13.5-119.27,0-111.55-19.64-186.2-49.08-186.2Zm5.52,367.25c-52.15,0-70.86-107.26-70.86-207.65,0-70.36,10.12-124.42,30.37-163,14.42-24.88,31.59-38.6,46.93-38.6,39.88,0,67.79,79.8,67.79,194.78,0,78.08-11,139.86-32.21,177.61-9.81,18.88-27.3,36.9-42,36.9Zm-350.62-8.58c-.62-2.57-1.23-10.29-.92-19.74a74.94,74.94,0,0,1,.92-12.87,58.22,58.22,0,0,0,13.49-7.72c6.14-4.29,8.59-13.73,8.9-35.18.92-51.48.92-149.31.61-217.09v-1.72c0-7.72,0-17.16-3.37-24-4.91-8.58-10.74-16.3-18.41-22.31a15.06,15.06,0,0,1-4.29-12c0-5.14,1.84-11.15,5.83-12.86,10.12-2.58,36.5-20.6,46.93-33.47.61,1.71,1.53,6.87,1.53,13.73l-.3,9.44c-.31,9.44-.62,20.6-.62,31.75,0,3.43,1.23,6,2.46,6,.61,0,1.23-.86,1.84-1.72,19.63-42.9,37.42-58.34,46.62-58.34,15,0,26.69,19.74,35.59,60.92.61,2.58,1.23,3.43,2.15,3.43.61,0,1.53-.85,1.84-2.57,18.1-38.62,36.19-61.78,48.16-61.78,28.53,0,45.4,59.2,45.4,159.6,0,28.31,0,65.21-.31,98.68,0,30-.31,57.49-.31,77.22,0,4.29,2.15,18,5.53,20.59,4.29,6,10.12,8.59,17.79,12h.31c.61,6-.62,28.32-1.84,32.61a27.59,27.59,0,0,1-7.67-.85,163.23,163.23,0,0,0-23.32-1.72c-19,0-28.83.86-38.34,2.57-.62-6.86-.92-27.45,0-32.61,5.52-2.57,8.28-5.14,11.65-7.72,6.14-5.15,7.67-12.87,8-35.18,0-16.3,1.23-155.3-.61-188.77-1.84-34.32-11.05-74.65-31.29-74.65-7.67,0-19.64,8.58-31.29,33.46a34.56,34.56,0,0,0-1.23,8.58V822c1.23,18,1.23,38.62,1.23,70.36v55.77c0,38.62-.31,74.66,0,102.11,0,18.89,4,23.17,7.36,26.61,1.84.85,3.07,1.71,4.6,2.57,2.76,1.72,5.52,3.43,9.82,6,.61,3.44.61,14.59-.31,24a36.48,36.48,0,0,1-1.22,8.58c-10.43-.85-21.17-1.71-36.82-1.71-4.6,0-12.57.86-19.32.86-5.53,0-10.74.85-13.81.85a122.56,122.56,0,0,1-.92-17.16c0-7.72.62-13.73,1.23-15.45,1.53-.86,2.76-1.71,4.29-1.71,3.68-1.71,6.75-3.43,9.82-5.15,5.22-4.29,7.06-12,7.36-30.88.92-42.91,1.84-165.61-.3-196.5-3.68-49.77-13.81-74.66-30.07-74.66-9.5,0-21.47,12.87-31.29,33.47-1.53,3.43-2.76,12-2.76,19.74v50.62c0,61.78,0,139,.31,172.47.31,10.29,1.53,22.31,8.59,26.6a29.72,29.72,0,0,0,7.06,3.43l5.52,2.57c.61,5.16.3,25.75-.92,32.61-3.07,0-6.75-.85-11.05-.85a180.5,180.5,0,0,0-23.92-1.72,167.88,167.88,0,0,0-24.54,1.72c-4.3-1.72-7.67-1.72-11.35-1.72Z"/><path class="cls-3" d="M116.52,1321.42l-12.58-12s1.54-179.34-21.47-192.2c-15.33-49.77,2.46-2110.83,57.67-6.87,0,0-19,26.6-22.39,72.08-3.68,44.62-1.23,139-1.23,139Z"/><path class="cls-4" d="M116.52,1321.42l-12.58-12s1.54-179.34-21.47-192.2c-15.33-49.77,2.46-2110.83,57.67-6.87,0,0-19,26.6-22.39,72.08-3.68,44.62-1.23,139-1.23,139Z"/><path class="cls-3" d="M123.27,1148.09S233.4,945.58,207.63,524.27C182.78,218,124.19,117.56,117.75,78.94c-7.06-27.46-13.81-75.5-13.81-75.5l4.61,852c0,.86-9.51,260.86,14.72,292.61"/><path class="cls-5" d="M123.27,1148.09S233.4,945.58,207.63,524.27C182.78,218,124.19,117.56,117.75,78.94c-7.06-27.46-13.81-75.5-13.81-75.5l4.61,852c0,.86-9.51,260.86,14.72,292.61"/><path class="cls-3" d="M97.5,1159.24S-5.87,961.88.26,614.37C6.09,266.86,79.1,96.11,93.21,65.21c9.2-27.45,9.51-37.75,10.12-65.21,6.44,38.62,5.22,577.48,6.14,641,2.76,244.55-4.91,471.94-12,518.27Z"/><path class="cls-6" d="M97.5,1159.24S-5.87,961.88.26,614.37C6.09,266.86,79.1,96.11,93.21,65.21c9.2-27.45,9.51-37.75,10.12-65.21,6.44,38.62,5.22,577.48,6.14,641,2.76,244.55-4.91,471.94-12,518.27Z"/></g></g></svg>