<svg xmlns="http://www.w3.org/2000/svg" viewBox="0 0 931.71 439.02"><defs><style>.cls-1{fill:#8e714e;}.cls-1,.cls-2,.cls-3,.cls-4,.cls-5,.cls-6{fill-rule:evenodd;}.cls-2{fill:#442d22;}.cls-3{fill:#fff;}.cls-4{fill:#a6a385;}.cls-5{fill:#499d4a;}.cls-6{fill:#58aa50;}</style></defs><g id="Layer_2" data-name="Layer 2"><g id="Layer_1-2" data-name="Layer 1"><path class="cls-1" d="M868.49,181.56c-.84.28-1.68,3.34-1.68,5-.17,11.13-.33,40.6-.33,60.62,0,.55.5,1.66,1,1.66,2.53.28,8.58.56,13.79.56,7.23,0,11.43-1.67,13.79-3.33,6.05-5,8.91-15.85,8.91-27.81,0-27-11.44-37.26-28.42-37.26a16.7,16.7,0,0,0-7.06.56Zm43.38,124.28c0-27.52-12.28-42.82-34.47-42.82-1,0-8.07-.27-9.75.28a2,2,0,0,0-1.17,1.67c0,19.74-.17,51.16.33,63.39.34,5.29,2.69,12.79,5.55,15,3,2.78,9.92,3.33,14.63,3.33,13.28,0,24.88-12.23,24.88-40.87ZM834.2,166.27c1.68,0,6.72.83,19.67.83,12.27,0,22-.55,34-.55,14.62,0,34.8,8.61,34.8,44.76,0,17.79-7.57,32-17.49,38.93a.6.6,0,0,0,0,1.11c14.13,5.84,26.57,20.3,26.57,47.54,0,26.7-10.09,43.65-24.72,54.22-8.91,6.39-20,8.62-31.27,8.62-8.57,0-31.6-1.67-44.38-1.11-1.35-.84,1.17-10.85,2.35-12.51a20.32,20.32,0,0,0,8.58-2.23c4.54-1.94,5-4.17,5.71-15.57.34-9.73.34-44.21.34-68.67,0-33.65.17-56.45,0-67.57-.17-8.62-2-11.4-5.72-13.07-2.86-.83-7.56-1.94-11.43-2.78-.84-1.39,2-10.84,3-11.95Zm-97,172.94c4,5.28,11.94,7.5,19,7.5,9.08,0,18.15-2.77,26.9-15.84,8.91-13.35,15.13-33.92,15.13-66.73,0-31.42-7.23-57-22-72-8.4-8.63-19.16-12.24-31.6-12.24-3.7,0-7.23.28-9.42,2a9.92,9.92,0,0,0-1.68,4.45c-.34,5.56-.34,48.37-.34,73.4,0,25.86,0,62,.34,66.17,0,4.17,1.18,10.57,3.7,13.35ZM699,166.27c3.19,0,15.46.83,21.35.83,10.59,0,18.15-.83,38.16-.83,16.81,0,30.94,7.51,41,21.68,12.27,17.52,18.66,41.71,18.66,71.18,0,42-11.6,66.18-23.2,80.08-11.6,14.18-26.73,22.52-48.25,22.52-11.43,0-31.1-.56-47.41-.84h-.17c-.84-2.5,1.35-12.23,2.69-12.51,4.37-.83,5.55-1.11,7.74-2.5,3.53-2.22,4.2-5.28,4.71-15.57.5-19.18.33-42.26.33-68.4,0-18.62.17-55.05-.17-66.73-.5-9.73-3-12.23-8.07-13.9a70.46,70.46,0,0,0-10.59-2.78c-.67-1.95,2.36-10.56,3.2-12.23Z"/><path class="cls-2" d="M495.6,350.05a24,24,0,0,1-10.93-4.73,11.27,11.27,0,0,1-1.34-4.44c-.34-9.74-.34-37.54-.34-56.17,0-15-1.51-28.08-5.38-37.25-4.54-10.57-11.1-16.69-19.5-16.69-7.4,0-17.32,8.35-25.56,20-.17.28-1.51,2.23-1.34-.83,0-3.06.33-9.18.5-13.35.17-3.89-1.17-5.84-1.17-5.84-5.39,4.45-20.52,10.29-26.06,11.12-4,1.4-5.05,7.79-.84,10h.16a33.27,33.27,0,0,1,9.92,7.23c1.68,2.23,1.52,5.29,1.52,7.79.16,20.85.16,52.83-.34,70.34-.17,6.95-1.34,9.45-4.37,10.57l.33-.28a43.47,43.47,0,0,1-7.06,2.22c-1,1.67-1,10.57,0,12.52,1.85,0,11.6-.84,19.67-.84,11.1,0,16.82.84,19.67.84,1.18-2.23,1.52-10.57.84-12.52a20.29,20.29,0,0,1-7.73-1.94c-3-1.12-3.87-3.62-4-9.46-.34-14.73-.34-45.87-.34-67,0-5.84,1-8.62,2-10.29,3.86-5.56,10.08-9.45,15.63-9.45,5.38,0,8.91,2.78,11.6,6.39,3.7,5,4.88,12.23,5.38,17.52.84,11.95.51,35.59.51,56.16,0,11.12-.51,13.9-3,15.29a21.29,21.29,0,0,1-7.73,2.5c-1.18,1.95-.84,10.57,0,12.52,4.87,0,10.59-.84,19-.84,10.42,0,17.14.84,19.83.84.84-1.67,1.18-9.73.51-12Zm46.57-106.21c-8.91,0-14.46,11.4-14.46,29.19,0,18.08,4.87,38.93,18.66,38.93a10.81,10.81,0,0,0,8.74-5.56c3.2-5,5.38-15,5.38-25.58,0-23.08-6.89-37-18.32-37ZM541,366.73a10.52,10.52,0,0,0-7.23,3.06c-7.06,7.51-10.25,14.74-10.25,23.36,0,8.06,1.85,14.45,5.88,20,4.88,6.95,11.6,10.29,20.18,10.29,17.14,0,24.71-15.3,24.71-30.31,0-10.57-3.19-17.52-9.75-21.41-4.71-3.34-13.28-5-23.54-5ZM542.17,439c-10.26,0-17.65-3.61-24-11.67-6.22-7.79-8.91-19.47-8.91-27.53a30.63,30.63,0,0,1,3.36-13.9c1.85-3.34,5.88-9.73,15.47-20.57a1.28,1.28,0,0,0,.5-1.12,2,2,0,0,0-.67-1.39c-7.9-5-10.26-13.07-10.93-17.52v-.55c-.17-1.67-.5-3.34,1-5,1.18-1.39,2.86-3.05,4.71-5a79.2,79.2,0,0,0,7.73-8.34,3,3,0,0,0,.34-1.67,1.94,1.94,0,0,0-.68-1.39c-11.76-6.4-17.65-20.85-17.65-42.54,0-14.18,3.87-27,10.76-35,4.71-6.12,16.48-13.63,24.21-13.63h.51c7.9.28,12.27,3.06,18.49,6.68a20.26,20.26,0,0,0,10.93,2.77c6.55,0,9.41-3.33,11.76-7.22a23.49,23.49,0,0,1,.68,5.56,31.92,31.92,0,0,1-2.19,12.79,8.58,8.58,0,0,1-7.4,5.28h-.84a23.91,23.91,0,0,1-4.37-1.11l-.67.56a4,4,0,0,0,.17,1.94l.17.56c.33,2.5,1,10,1,11.95,0,22.8-5.54,32.81-11.43,40.32-5.71,6.95-12.27,11.4-19.67,12.51a12.74,12.74,0,0,0-2.35.28,18.17,18.17,0,0,0-2.19.28h-.17a9.08,9.08,0,0,0-4.7,8.06c0,4.17,1.51,9.17,8.74,10,1.51.28,3,.28,4.71.56,9.58,1.11,21.52,2.5,27.06,5.55,7.74,4.73,12.61,16.13,12.61,29.76,0,20.57-8.91,39.76-23.7,51.71-7.23,5.28-14.46,8.06-22.36,8.06ZM638,245.23a11.59,11.59,0,0,0-9.08,4.17c-6.56,6.67-9.92,20-9.92,39.48,0,36.43,11.1,62,26.9,62,4.71,0,8.41-2.23,11.6-6.68,4.87-6.67,7.4-20,7.4-38.64,0-36.15-10.93-60.34-26.9-60.34Zm3,119c-28.58,0-38.83-34.75-38.83-67.28,0-22.8,5.55-40.32,16.64-52.83,7.9-8.06,17.32-12.51,25.72-12.51,21.86,0,37.16,25.86,37.16,63.11,0,25.3-6.05,45.32-17.65,57.56-5.55,6.11-15.13,12-23,12Zm-299.59-119a11.6,11.6,0,0,0-9.08,4.17c-6.55,6.67-9.92,20-9.92,39.48,0,36.43,11.1,62,26.9,62,4.71,0,8.41-2.23,11.6-6.68,4.88-6.67,7.4-20,7.4-38.64,0-36.15-10.76-60.34-26.9-60.34Zm3,119c-28.58,0-38.84-34.75-38.84-67.28,0-22.8,5.55-40.32,16.64-52.83,7.91-8.06,17.32-12.51,25.73-12.51,21.85,0,37.15,25.86,37.15,63.11,0,25.3-6.05,45.32-17.65,57.56-5.38,6.11-15,12-23,12Zm-192.17-2.78a19.18,19.18,0,0,1-.5-6.39,15,15,0,0,1,.5-4.17,41.27,41.27,0,0,0,7.4-2.51c3.36-1.39,4.71-4.44,4.88-11.4.5-16.68.5-48.38.33-70.34v-.56c0-2.5,0-5.56-1.85-7.78A33.22,33.22,0,0,0,153,251.07a4,4,0,0,1-2.36-3.89,4.25,4.25,0,0,1,3.2-4.17c5.55-.84,20-6.68,25.72-10.85a10.07,10.07,0,0,1,.84,4.45l-.17,3.06c-.17,3.06-.33,6.67-.33,10.29,0,1.11.67,1.94,1.34,1.94a1.83,1.83,0,0,0,1-.55c10.76-13.91,20.51-18.91,25.55-18.91,8.24,0,14.63,6.4,19.51,19.74.33.84.67,1.11,1.17,1.11a1.14,1.14,0,0,0,1-.83c9.92-12.51,19.84-20,26.4-20,15.63,0,24.88,19.19,24.88,51.72,0,9.17,0,21.13-.17,32,0,9.73-.17,18.63-.17,25,0,1.39,1.18,5.84,3,6.68,2.35,1.94,5.55,2.78,9.75,3.89h.17c.33,1.94-.34,9.17-1,10.57a24.82,24.82,0,0,1-4.2-.28c-3.2-.28-7.74-.56-12.78-.56a185.89,185.89,0,0,0-21,.84c-.33-2.23-.5-8.9,0-10.57a36.06,36.06,0,0,0,6.39-2.5c3.37-1.67,4.21-4.17,4.37-11.4,0-5.28.68-50.33-.33-61.17-1-11.12-6.06-24.19-17.15-24.19-4.2,0-10.76,2.78-17.15,10.84a7,7,0,0,0-.67,2.78v.28c.67,5.84.67,12.51.67,22.8v18.07c0,12.52-.17,24.19,0,33.09,0,6.12,2.19,7.51,4,8.62,1,.28,1.68.55,2.52.83,1.51.56,3,1.12,5.38,2a24.88,24.88,0,0,1-.17,7.78,7.7,7.7,0,0,1-.67,2.79c-5.72-.28-11.6-.56-20.18-.56-2.52,0-6.89.28-10.59.28-3,0-5.89.28-7.56.28a23.46,23.46,0,0,1-.51-5.57,13.5,13.5,0,0,1,.67-5,7.19,7.19,0,0,1,2.36-.56c2-.55,3.69-1.11,5.38-1.67,2.85-1.38,3.86-3.89,4-10,.51-13.9,1-53.66-.17-63.67-2-16.13-7.56-24.19-16.47-24.19-5.21,0-11.77,4.17-17.15,10.84-.84,1.11-1.51,3.89-1.51,6.39v16.41c0,20,0,45,.16,55.88.17,3.34.84,7.23,4.71,8.62a22.69,22.69,0,0,0,3.87,1.12l3,.83a38.11,38.11,0,0,1-.5,10.57c-1.68,0-3.7-.28-6-.28-3.53-.28-8.07-.56-13.12-.56-5.88,0-10.08.28-13.45.56a24.66,24.66,0,0,0-6.22-.56Z"/><path class="cls-3" d="M63.86,428.18,57,424.29S57.81,366.18,45.2,362c-8.41-16.13,1.35-684,31.61-2.23a38.85,38.85,0,0,0-12.28,23.36c-2,14.46-.67,45-.67,45Z"/><path class="cls-4" d="M63.86,428.18,57,424.29S57.81,366.18,45.2,362c-8.41-16.13,1.35-684,31.61-2.23a38.85,38.85,0,0,0-12.28,23.36c-2,14.46-.67,45-.67,45Z"/><path class="cls-3" d="M67.56,372s60.36-65.62,46.23-202.14C100.18,70.62,68.06,38.09,64.53,25.58,60.67,16.68,57,1.11,57,1.11L59.49,277.2c0,.28-5.21,84.53,8.07,94.82"/><path class="cls-5" d="M67.56,372s60.36-65.62,46.23-202.14C100.18,70.62,68.06,38.09,64.53,25.58,60.67,16.68,57,1.11,57,1.11L59.49,277.2c0,.28-5.21,84.53,8.07,94.82"/><path class="cls-3" d="M53.44,375.63S-3.22,311.68.14,199.08c3.2-112.61,43.21-167.94,50.94-178C56.13,12.23,56.3,8.9,56.63,0,60.16,12.51,59.49,187.12,60,207.7c1.52,79.24-2.69,152.92-6.55,167.93Z"/><path class="cls-6" d="M53.44,375.63S-3.22,311.68.14,199.08c3.2-112.61,43.21-167.94,50.94-178C56.13,12.23,56.3,8.9,56.63,0,60.16,12.51,59.49,187.12,60,207.7c1.52,79.24-2.69,152.92-6.55,167.93Z"/></g></g></svg>