<svg xmlns="http://www.w3.org/2000/svg" viewBox="0 0 579.27 198.78"><defs><style>.cls-1{fill:#8e714e;}.cls-1,.cls-2,.cls-3,.cls-4,.cls-5,.cls-6{fill-rule:evenodd;}.cls-2{fill:#442d22;}.cls-3{fill:#fff;}.cls-4{fill:#a6a385;}.cls-5{fill:#499d4a;}.cls-6{fill:#58aa50;}</style></defs><g id="Layer_2" data-name="Layer 2"><g id="Layer_1-2" data-name="Layer 1"><path class="cls-1" d="M540,82.21c-.53.12-1.05,1.51-1.05,2.26-.1,5-.21,18.38-.21,27.45,0,.25.31.75.63.75,1.57.13,5.33.25,8.57.25,4.49,0,7.11-.75,8.57-1.51,3.76-2.26,5.54-7.17,5.54-12.59C562,86.61,554.91,82,544.36,82a14.09,14.09,0,0,0-4.39.26Zm27,56.27c0-12.46-7.63-19.39-21.42-19.39a50.9,50.9,0,0,0-6.07.13c-.31.12-.73.38-.73.75,0,8.94-.1,23.17.21,28.71.21,2.39,1.67,5.79,3.45,6.79,1.88,1.26,6.17,1.51,9.09,1.51,8.26,0,15.47-5.53,15.47-18.5Zm-48.29-63.2c1.05,0,4.18.38,12.23.38,7.63,0,13.7-.25,21.12-.25,9.09,0,21.63,3.9,21.63,20.27a19.71,19.71,0,0,1-10.87,17.62c-.31.13-.31.38,0,.5,8.78,2.65,16.52,9.2,16.52,21.53,0,12.09-6.27,19.77-15.37,24.55-5.54,2.9-12.44,3.9-19.44,3.9-5.33,0-19.65-.75-27.59-.5-.84-.38.73-4.91,1.46-5.67a16.46,16.46,0,0,0,5.33-1c2.82-.88,3.14-1.89,3.55-7.05.21-4.41.21-20,.21-31.1,0-15.23.11-25.55,0-30.59-.1-3.9-1.25-5.16-3.55-5.92-1.78-.37-4.7-.88-7.11-1.25-.52-.63,1.26-4.91,1.88-5.42Zm-60.31,78.31c2.51,2.39,7.42,3.39,11.81,3.39,5.65,0,11.29-1.25,16.73-7.17s9.4-15.36,9.4-30.21c0-14.23-4.49-25.81-13.69-32.61-5.22-3.9-11.92-5.54-19.65-5.54-2.3,0-4.49.13-5.85.88a3.83,3.83,0,0,0-1.05,2c-.21,2.51-.21,21.9-.21,33.23,0,11.71,0,28.07.21,30,0,1.89.73,4.79,2.3,6.05ZM434.6,75.28c2,0,9.62.38,13.28.38,6.58,0,11.29-.38,23.73-.38,10.45,0,19.23,3.4,25.5,9.82,7.63,7.93,11.6,18.89,11.6,32.23,0,19-7.21,30-14.42,36.26s-16.62,10.19-30,10.19c-7.11,0-19.34-.25-29.48-.38h-.1c-.52-1.13.83-5.53,1.67-5.66,2.72-.38,3.45-.5,4.81-1.13,2.19-1,2.61-2.39,2.93-7.05.31-8.69.2-19.14.2-31,0-8.44.11-24.93-.1-30.22-.31-4.4-1.88-5.53-5-6.29a57.24,57.24,0,0,0-6.58-1.26c-.42-.88,1.46-4.78,2-5.54Z"/><path class="cls-2" d="M308.13,158.5a18.47,18.47,0,0,1-6.8-2.14,4.23,4.23,0,0,1-.83-2c-.21-4.41-.21-17-.21-25.43,0-6.8-.94-12.71-3.35-16.87-2.82-4.78-6.9-7.55-12.12-7.55-4.6,0-10.77,3.78-15.89,9.06-.1.13-.94,1-.84-.37s.21-4.16.32-6.05a3.66,3.66,0,0,0-.73-2.64c-3.35,2-12.76,4.66-16.21,5-2.5.63-3.13,3.53-.52,4.54h.11a21.37,21.37,0,0,1,6.16,3.27c1,1,.94,2.39.94,3.52.11,9.45.11,23.92-.2,31.86-.11,3.14-.84,4.27-2.72,4.78l.21-.13a34.84,34.84,0,0,1-4.39,1c-.63.75-.63,4.78,0,5.66,1.15,0,7.21-.37,12.23-.37,6.89,0,10.45.37,12.23.37.73-1,.94-4.78.52-5.66a16.67,16.67,0,0,1-4.81-.88c-1.88-.51-2.4-1.64-2.51-4.28-.21-6.67-.21-20.77-.21-30.34,0-2.65.63-3.9,1.26-4.66a14.29,14.29,0,0,1,9.72-4.28,9.72,9.72,0,0,1,7.21,2.9c2.3,2.26,3,5.53,3.34,7.93.53,5.41.32,16.11.32,25.43,0,5-.32,6.29-1.88,6.92a17.07,17.07,0,0,1-4.81,1.13c-.73.88-.52,4.79,0,5.67,3,0,6.58-.38,11.81-.38,6.48,0,10.66.38,12.33.38.53-.76.74-4.41.32-5.41Zm28.95-48.09c-5.54,0-9,5.16-9,13.21s3,17.63,11.6,17.63c1.47,0,4.19-.76,5.44-2.52,2-2.27,3.34-6.8,3.34-11.58,0-10.45-4.28-16.74-11.39-16.74Zm-.73,55.64a7.84,7.84,0,0,0-4.49,1.38c-4.4,3.4-6.38,6.68-6.38,10.58a12.09,12.09,0,0,0,3.66,9.06c3,3.15,7.21,4.66,12.54,4.66,10.66,0,15.37-6.92,15.37-13.72,0-4.79-2-7.93-6.07-9.69-2.92-1.52-8.25-2.27-14.63-2.27Zm.73,32.73c-6.37,0-11-1.64-14.95-5.29A17.88,17.88,0,0,1,316.59,181a10.86,10.86,0,0,1,2.09-6.29c1.15-1.52,3.66-4.41,9.62-9.32a.52.52,0,0,0,.31-.5.82.82,0,0,0-.41-.63c-4.92-2.27-6.38-5.92-6.8-7.93v-.26c-.1-.75-.31-1.51.63-2.26.73-.63,1.78-1.39,2.93-2.27a42.86,42.86,0,0,0,4.8-3.78A1,1,0,0,0,330,147a.85.85,0,0,0-.41-.63c-7.32-2.9-11-9.44-11-19.26,0-6.42,2.4-12.21,6.69-15.86,2.93-2.77,10.24-6.17,15.05-6.17h.32c4.91.12,7.63,1.38,11.49,3a16.41,16.41,0,0,0,6.8,1.26c4.07,0,5.85-1.51,7.31-3.27a7.69,7.69,0,0,1,.42,2.51,10.88,10.88,0,0,1-1.36,5.79,5.52,5.52,0,0,1-4.6,2.4h-.52a20.7,20.7,0,0,1-2.72-.51l-.41.25c-.11.26,0,.51.1.89l.11.25c.2,1.13.62,4.53.62,5.41,0,10.32-3.45,14.85-7.11,18.25A21.82,21.82,0,0,1,338.54,147a10.59,10.59,0,0,0-1.46.13c-.52,0-1.25.12-1.36.12h-.1c-.84.25-2.93,1.51-2.93,3.65,0,1.89.94,4.16,5.44,4.53.94.13,1.88.13,2.92.26,6,.5,13.38,1.13,16.83,2.51,4.81,2.14,7.84,7.3,7.84,13.47,0,9.32-5.54,18-14.74,23.42a28.92,28.92,0,0,1-13.9,3.65ZM396.66,111a8.52,8.52,0,0,0-5.64,1.88c-4.08,3-6.17,9.07-6.17,17.88,0,16.49,6.9,28.07,16.72,28.07a9.59,9.59,0,0,0,7.22-3c3-3,4.6-9.06,4.6-17.5,0-16.36-6.8-27.31-16.73-27.31Zm1.88,53.88c-17.77,0-24.14-15.74-24.14-30.47,0-10.32,3.45-18.25,10.34-23.92a27.71,27.71,0,0,1,16-5.66c13.59,0,23.1,11.7,23.1,28.57,0,11.46-3.77,20.52-11,26.06-3.45,2.77-9.4,5.42-14.32,5.42ZM212.28,111a8.54,8.54,0,0,0-5.65,1.88c-4.07,3-6.16,9.07-6.16,17.88,0,16.49,6.89,28.07,16.72,28.07a9.55,9.55,0,0,0,7.21-3c3-3,4.6-9.06,4.6-17.5C229,122,222.31,111,212.28,111Zm1.88,53.88c-17.77,0-24.15-15.74-24.15-30.47,0-10.32,3.45-18.25,10.35-23.92a27.68,27.68,0,0,1,16-5.66c13.59,0,23.1,11.7,23.1,28.57,0,11.46-3.76,20.52-11,26.06-3.35,2.77-9.3,5.42-14.32,5.42ZM94.69,163.66a6.44,6.44,0,0,1-.32-2.9,4.83,4.83,0,0,1,.32-1.89,31.16,31.16,0,0,0,4.59-1.13c2.09-.63,2.93-2,3-5.16.31-7.55.31-21.91.2-31.85v-.25a4.26,4.26,0,0,0-1.15-3.53,21.51,21.51,0,0,0-6.27-3.27c-.94-.38-1.56-1-1.46-1.76s.63-1.64,2-1.89a66.31,66.31,0,0,0,16-4.91,3.54,3.54,0,0,1,.52,2l-.1,1.39c-.11,1.38-.21,3-.21,4.66a.88.88,0,0,0,.83.88,1.31,1.31,0,0,0,.63-.26c6.69-6.29,12.75-8.56,15.89-8.56,5.12,0,9.09,2.9,12.12,8.94a.78.78,0,0,0,.74.51.71.71,0,0,0,.62-.38c6.17-5.67,12.34-9.07,16.41-9.07,9.72,0,15.47,8.69,15.47,23.42,0,4.15,0,9.57-.1,14.48,0,4.4-.11,8.43-.11,11.33,0,.63.74,2.64,1.89,3,1.46.88,3.44,1.26,6.06,1.76h.1a12.08,12.08,0,0,1-.62,4.78,22.46,22.46,0,0,1-2.62-.12c-2-.13-4.81-.25-7.94-.25-6.48,0-9.83.12-13.07.37a14.72,14.72,0,0,1,0-4.78,28,28,0,0,0,4-1.13c2.1-.76,2.62-1.89,2.72-5.16,0-2.39.42-22.79-.21-27.7s-3.76-11-10.66-11c-2.61,0-6.69,1.26-10.66,4.91a2.49,2.49,0,0,0-.42,1.26v.12a69.69,69.69,0,0,1,.42,10.33v8.18c0,5.66-.11,10.95,0,15,0,2.77,1.36,3.4,2.51,3.9.63.13,1,.25,1.57.38l3.34.88a8.19,8.19,0,0,1-.1,3.53,2.72,2.72,0,0,1-.42,1.25c-3.55-.12-7.21-.25-12.54-.25-1.57,0-4.29.13-6.59.13-1.88,0-3.66.12-4.7.12a7.61,7.61,0,0,1-.32-2.51,4.55,4.55,0,0,1,.42-2.27,5.73,5.73,0,0,1,1.46-.25c1.26-.25,2.3-.5,3.35-.76,1.78-.63,2.4-1.76,2.51-4.53.31-6.29.62-24.29-.11-28.83-1.25-7.3-4.7-10.95-10.24-10.95-3.24,0-7.32,1.89-10.66,4.91a4.56,4.56,0,0,0-.94,2.9v7.42c0,9.07,0,20.4.1,25.31.11,1.51.52,3.27,2.93,3.9a16.9,16.9,0,0,0,2.4.5l1.88.38a12.57,12.57,0,0,1-.31,4.78c-1,0-2.3-.12-3.76-.12-2.2-.13-5-.25-8.16-.25-3.65,0-6.27.12-8.36.25a21.15,21.15,0,0,0-3.86-.25Z"/><path class="cls-3" d="M39.7,193.87l-4.28-1.76s.52-26.31-7.32-28.2c-5.22-7.3.84-309.69,19.65-1,0,0-6.48,3.9-7.63,10.58s-.42,20.39-.42,20.39Z"/><path class="cls-4" d="M39.7,193.87l-4.28-1.76s.52-26.31-7.32-28.2c-5.22-7.3.84-309.69,19.65-1,0,0-6.48,3.9-7.63,10.58s-.42,20.39-.42,20.39Z"/><path class="cls-3" d="M42,168.44s37.53-29.71,28.75-91.52C62.28,32,42.32,17.25,40.12,11.58A69.73,69.73,0,0,1,35.42.5l1.57,125c0,.13-3.24,38.27,5,42.93"/><path class="cls-5" d="M42,168.44s37.53-29.71,28.75-91.52C62.28,32,42.32,17.25,40.12,11.58A69.73,69.73,0,0,1,35.42.5l1.57,125c0,.13-3.24,38.27,5,42.93"/><path class="cls-3" d="M33.22,170.08S-2,141.12.09,90.14,27,14.1,31.76,9.57C34.9,5.54,35,4,35.21,0,37.4,5.67,37,84.72,37.3,94c.94,35.88-1.67,69.24-4.08,76Z"/><path class="cls-6" d="M33.22,170.08S-2,141.12.09,90.14,27,14.1,31.76,9.57C34.9,5.54,35,4,35.21,0,37.4,5.67,37,84.72,37.3,94c.94,35.88-1.67,69.24-4.08,76Z"/></g></g></svg>