<?xml version="1.0" encoding="utf-8"?>
<!-- Generator: Adobe Illustrator 25.2.0, SVG Export Plug-In . SVG Version: 6.00 Build 0)  -->
<svg version="1.1" id="Layer_1" xmlns="http://www.w3.org/2000/svg" xmlns:xlink="http://www.w3.org/1999/xlink" x="0px" y="0px"
	 viewBox="0 0 612 792" style="enable-background:new 0 0 612 792;" xml:space="preserve">
<style type="text/css">
	.st0{fill:none;stroke:#F6921E;stroke-miterlimit:10;}
</style>
<path class="st0" d="M273.8,377.5c0,23.5,0,47,0,70.5c-1.4-20.3,4.4-40.9,16.5-59c-4.5,8.5-8.9,17.1-13.4,25.6
	c24.7,1.1,49.4,2.2,74.2,3.3c-33.6-12.4-67.3-24.8-100.9-37.2c0.9-3.5,6.5-5.6,10.6-4c6,24.6,11.9,49.2,17.9,73.8
	c21.4,0,41.6-13.3,45.3-29.7c18.5,1.1,37.2-8.4,43.4-22c6.3-13.6-0.5-30.2-15.6-38.5c-19.7,23-13.6,57.2,13.3,75.1"/>
</svg>
